<svg width="16" height="16" viewBox="0 0 16 16"  xmlns="http://www.w3.org/2000/svg">
<path d="M15.0222 16L9.17778 10.1556C8.73333 10.5407 8.21482 10.8407 7.62222 11.0556C7.02963 11.2704 6.4 11.3778 5.73333 11.3778C4.13333 11.3778 2.77778 10.8222 1.66667 9.71111C0.555556 8.6 0 7.25926 0 5.68889C0 4.11852 0.555556 2.77778 1.66667 1.66667C2.77778 0.555556 4.12593 0 5.71111 0C7.28148 0 8.61852 0.555556 9.72222 1.66667C10.8259 2.77778 11.3778 4.11852 11.3778 5.68889C11.3778 6.32593 11.2741 6.94074 11.0667 7.53333C10.8593 8.12593 10.5481 8.68148 10.1333 9.2L16 15.0222L15.0222 16ZM5.71111 10.0444C6.91111 10.0444 7.93333 9.61852 8.77778 8.76667C9.62222 7.91481 10.0444 6.88889 10.0444 5.68889C10.0444 4.48889 9.62222 3.46296 8.77778 2.61111C7.93333 1.75926 6.91111 1.33333 5.71111 1.33333C4.4963 1.33333 3.46296 1.75926 2.61111 2.61111C1.75926 3.46296 1.33333 4.48889 1.33333 5.68889C1.33333 6.88889 1.75926 7.91481 2.61111 8.76667C3.46296 9.61852 4.4963 10.0444 5.71111 10.0444Z" />
</svg>
