<svg xmlns="http://www.w3.org/2000/svg" viewBox="0 0 50 50">
  <g id="b4e4eaeb-a3bb-47df-b77f-3dc41f3e2f72" data-name="Calque 2">
    <g id="e5c43619-6ad4-482f-95f1-6a6ceb742c6c" data-name="Calque 1">
      <g>
        <path d="M24.12109,0h1.75782c.22175.0378.4429.07965.66535.11273,1.47347.21917,2.97386.32608,4.41612.6741a24.26389,24.26389,0,0,1,13.173,8.21375A24.28679,24.28679,0,0,1,49.7905,22.29039c.06541.61071.13946,1.22049.2095,1.8307v1.75782c-.03874.23821-.08419.47555-.1151.71477-.14745,1.14126-.21442,2.299-.4488,3.42192a24.49616,24.49616,0,0,1-8.25385,13.95829A24.25651,24.25651,0,0,1,27.708,49.79049c-.61022.0651-1.21945.13945-1.82913.20951H24.12109c-.20522-.03721-.40979-.07868-.61579-.111-1.61521-.25316-3.26419-.37439-4.84006-.77994a24.28466,24.28466,0,0,1-13.617-9.14125,24.12337,24.12337,0,0,1-4.84-12.25758C.14443,27.09923.06968,26.48933,0,25.87891V24.12109c.03837-.23846.08313-.47609.114-.71551.14728-1.14111.21235-2.29922.44871-3.42137A24.55253,24.55253,0,0,1,9.91811,5.13635,24.16564,24.16564,0,0,1,22.24227.21246C22.86887.1447,23.49483.071,24.12109,0ZM12.74944,13.56c-.06436.19423-.21434.40687-.17726.57928.11753.54642.30942,1.07653.46369,1.61548.10037.35065.1853.70572.29239,1.11736-.74087-.12518-1.1253-.61685-1.05971-1.15614a2.89015,2.89015,0,0,0-.45248-1.9025.53479.53479,0,0,0-.38508-.21735c-.07576-.00186-.19314.19444-.22921.31954a3.22914,3.22914,0,0,0,.157,2.09743c.06238.1629.096.33681.14289.50566l-.12665.041a1.31236,1.31236,0,0,1-.13353-.323c-.06856-.54611-.10319-1.09691-.18445-1.64088-.09052-.60593-.19947-1.211-.34606-1.80511a.47516.47516,0,0,0-.4-.24956c-.117.02543-.20148.24812-.2765.3964a.4635.4635,0,0,0-.00662.24115c.11948,1.04588.24962,2.09062.35709,3.13771a4.57,4.57,0,0,1-.04072.74077l-.24854.00017c-.02925-.30194-.07268-.60332-.08466-.906-.02172-.54861-.00163-1.1-.05-1.64574a.57629.57629,0,0,0-.31713-.42435.63447.63447,0,0,0-.49178.20682,1.39789,1.39789,0,0,0-.32975.58748c-.141.53138-.2328,1.07562-.35517,1.61223-.03889.17053-.11192.33327-.2091.6148-.50921-.88888-.29427-1.85944-.84929-2.59376a3.079,3.079,0,0,0-.13754,1.03529,20.31452,20.31452,0,0,0,.24264,2.213.698.698,0,0,0,.79484.63634c.4743-.06326.54893-.46425.596-.83526.05722-.45095.0569-.90892.10032-1.362a3.39791,3.39791,0,0,1,.13014-.51721l.12928.01947c0,.67542-.01111,1.35107.00323,2.02619a.95239.95239,0,0,0,.90756,1.05815c.42328.05829.4627.35629.42559.7782a.31947.31947,0,0,0-.00117.03621c.02846,1.06919.10951,2.13581.17144,3.20337l.00194.0004c.11662-.24371.457-.39991.55515-.65085a2.968,2.968,0,0,0,.2151-.9898c.02189-.94279-.00656-1.88668-.00725-2.83014a5.77851,5.77851,0,0,1,.07031-.60172,4.04273,4.04273,0,0,0,.55207.35609,1.58291,1.58291,0,0,0,.71229.20171,1.32266,1.32266,0,0,0,1.20957-1.44878c-.03814-.52908-.19229-1.04906-.2742-1.57627a1.24207,1.24207,0,0,1,.06917-.39125l.1502.02787c.19505,1.34806.39936,2.69493.57413,4.04561a2.03566,2.03566,0,0,1-.18554.65832c-.18468-.2017-.27967-.29018-.35657-.39229-.24029-.31906-.49256-.65057-.94786-.55473a1.2461,1.2461,0,0,0-1.01835.94293,4.95954,4.95954,0,0,0-.10652,1.20449.78524.78524,0,0,0,1.16159.71728,7.019,7.019,0,0,0,.659-.39536,5.73447,5.73447,0,0,1-.23839.7286A2.79789,2.79789,0,0,1,12.031,23.21008c-.94238.37315-1.48288.02355-1.54977-.98523-.02251-.33952-.03966-.68118-.09583-1.01572-.01972-.1175-.14886-.21663-.228-.32415-.08742.10085-.22384.18908-.25365.30477-.11886.46138-.20454.93132-.30264,1.39878-.31741-.152-.46652-.11529-.5209.25517a10.46686,10.46686,0,0,0-.12055,1.79111A2.02779,2.02779,0,0,0,11.09,26.69737a4.44792,4.44792,0,0,0,4.36259-4.14322c.021-.574.00315-1.14942.00315-1.74682.78268.252.98131.16972,1.59075-.44155l.01123-.00042c.4991.44488,1.19209.36823,1.37955-.13286A4.39933,4.39933,0,0,0,18.646,18.191a2.43671,2.43671,0,0,0-.579.40274,2.67881,2.67881,0,0,0-.23752.68714c-.09992-.20473-.14273-.30479-.19583-.399-.20458-.36316-.46576-.38742-.7145-.05935-.07732.102-.10049.25258-.1903.33573a4.59068,4.59068,0,0,1-.546.37178c-.06605-.54731-.03536-1.0417-.74209-.80283l-.43337-3.6437c.53945.02.592-.24839.44308-.62766-.21912-.55789-.4443-1.11339-.66369-1.67117-.12442-.31631-.38-.34154-.57715-.15656a1.2658,1.2658,0,0,0-.36363.67614,3.46374,3.46374,0,0,0,.07835.87635c-.36733-.30393-.49332-.96057-1.16477-.63021a5.59883,5.59883,0,0,0,.17817-.78669c.01032-.11131-.1178-.23545-.183-.35375l-.33138.21671-.0064-.099-.51961.08392c-.184-.21941-.28547-.23768-.39314-.01779a.73947.73947,0,0,0,.53326,1.04588A2.91265,2.91265,0,0,0,12.74944,13.56ZM42.70073,24.1326l.18974-.01485c.022-.37414.0613-.74822.06238-1.12242a5.0047,5.0047,0,0,0-.85914-2.08791,8.64486,8.64486,0,0,1-.44789-1.56673.29372.29372,0,0,1,.14047-.251c.37326-.084.27047-.31876.16675-.52125-.18492-.361-.44082-.68975-.59457-1.06191-.35458-.85832-.81715-1.72005-.254-2.67305A.26213.26213,0,0,0,41.11,14.6433c-.23456-.72213-.45836-1.44845-.72049-2.16061-.12221-.332-.34584-.27906-.56-.04949A1.2419,1.2419,0,0,0,39.566,13.572c.22751,1.37.4434,2.74195.66377,4.11314a3.945,3.945,0,0,1-.84056-1.26044,7.10168,7.10168,0,0,1-.19537-1.53191.16971.16971,0,0,1,.1024-.12686c.39014-.0938.27066-.34383.16684-.56629-.261-.55929-.52869-1.11586-.8102-1.66506-.18628-.36343-.40974-.37582-.56877-.00545a4.1528,4.1528,0,0,0-.17882.89125l-1.21843-1.18885-.14479.08986a3.077,3.077,0,0,0,.23656,2.1799c.48588.692.98076,1.37816,1.44639,2.08358a1.456,1.456,0,0,1,.23.6684c.10693,1.49123.22,2.98333.26367,4.47711a5.56163,5.56163,0,0,1-.2535,1.61752c-.136.48906-.40452.51334-.70624.11455-.16629-.21978-.30411-.461-.45719-.69091-.31016-.46589-.65974-.48488-.93281.00129-.34892.62119-.62729,1.2816-.95914,1.913a5.67519,5.67519,0,0,1-.47544.66336c-.17823-.23379-.36506-.46171-.53019-.70441a.75629.75629,0,0,1-.10133-.323c-.06223-.49044-.11426-.98218-.17028-1.47607-.03535.00868-.079.00583-.09261.02468a2.86119,2.86119,0,0,0,.83315,3.75051.59252.59252,0,0,0,.85487-.19241,3.08645,3.08645,0,0,0,.32821-.75194c.11162-.3712.15366-.76444.27793-1.13044.16084-.47364.33642-.49409.675-.14315a5.42484,5.42484,0,0,0,.53737.49316.986.986,0,0,0,1.44367.00228,1.86226,1.86226,0,0,0,.66913-1.60051c.01276-1.22644.00378-2.45311.00378-3.67968l.14221-.00508.07692,1.19934.15641.02288.31882-.75505.08156.00312.18968,4.43324.44954-.33915c.0661.913.1581,1.77107.18222,2.631.02514.89564.24567,1.866-.50123,2.59033-.45817.44436-1.03071.76859-1.51854,1.18577a2.32249,2.32249,0,0,0-.37736.627,1.986,1.986,0,0,0,.73357.20968,2.67015,2.67015,0,0,0,2.51073-2.69485c.07464-1.44168.02559-2.88979.03034-4.33507.00128-.39169.00019-.78339.00019-1.27616Zm-21.3988-6.65908a1.024,1.024,0,0,0-.47974,1.31448c.17526.57381.39671,1.13372.56587,1.70914A3.79332,3.79332,0,0,1,19.56,25.154c-.56794.33521-.97882.19165-1.16359-.43924a5.77192,5.77192,0,0,0,1.9862-2.14852,3.46122,3.46122,0,0,0,.08344-2.897c.11335-.115.22385-.27.18488-.36124a4.88856,4.88856,0,0,0-.54083-1.023.54083.54083,0,0,0-.99572.14226,1.329,1.329,0,0,0,.17676,1.41923,1.93041,1.93041,0,0,1-.98892,3.11742l-.03836-.77524-.16294-.02908a5.91074,5.91074,0,0,0-.41986,1.05011,1.45393,1.45393,0,0,1-.6791.93832c-.84235.6085-1.64869,1.26719-2.46275,1.9142a2.66146,2.66146,0,0,0-.32417.37069l.07415.13791a14.0771,14.0771,0,0,0,3.09357-1.117c.06.11767.097.18906.13294.261a1.54324,1.54324,0,0,0,2.38172.71519,5.76868,5.76868,0,0,0,1.90231-1.859c.09041-.141.20171-.26859.34592-.45836.15047.2141.2481.35714.34987.49717A3.78594,3.78594,0,0,0,25.45142,26.262c.31467.01925.54675-.09869.54638-.40079a1.09891,1.09891,0,0,0-.26185-.63874c-.13764-.16633-.386-.23542-.56255-.37634a.556.556,0,0,1,.08652-.98734,2.29516,2.29516,0,0,1,.56083-.14236c.83728-.18855,1.67611-.37053,2.51093-.56933a.44518.44518,0,0,0,.2905-.20981c.16977-.48169.30779-.97457.49338-1.58311H25.55618l-.01625-.1209c.28216-.07452.5667-.14107.84618-.22458a1.99684,1.99684,0,0,0,1.53382-1.86078,1.445,1.445,0,0,0-1.0782-1.53577,1.27879,1.27879,0,0,0-1.32838,1.10574c-.05041.25108.002.52258-.04642.77438-.02673.139-.14326.34091-.2568.37046a4.2624,4.2624,0,0,0-2.67092,1.66214A7.78835,7.78835,0,0,0,21.30193,17.47352Zm5.13464-4.43612a1.14233,1.14233,0,0,0-.24437-.36311c-.214-.1632-.502-.40455-.70351-.3605-.20748.04533-.4112.36874-.50557.6133a1.62784,1.62784,0,0,0,.17021,1.2589,6.28227,6.28227,0,0,1,.40744,1.57574c.021.14774-.23092.38291-.41052.48365-.06172.03462-.36709-.19124-.41713-.345a6.161,6.161,0,0,1-.19573-1.09219c-.1028-.77055-.18466-1.544-.29814-2.3129a3.1044,3.1044,0,0,0-.2444-.61758,2.35061,2.35061,0,0,0-.29175.2808,1.82644,1.82644,0,0,0-.21442,1.5805,2.57654,2.57654,0,0,1-.04309,2.21251c-.12573.18819-.41935.41635-.59037.38419-.2206-.04149-.4352-.30024-.576-.5154a1.17839,1.17839,0,0,1-.073-.56607c-.01769-.55248.00365-1.10817-.05163-1.65641a.714.714,0,0,0-.3492-.50623c-.10706-.04618-.41189.136-.48747.28654-.33945.676-.634,1.375-.93242,2.071a6.50868,6.50868,0,0,0-.20422.648l-.22363.00138-.58933-2.66668-.2149.02174a8.88762,8.88762,0,0,0-.18414.87371,3.84562,3.84562,0,0,0,.58151,2.65356.966.966,0,0,0,.70929.38939c.194-.00841.4393-.29541.54574-.51518a6.70345,6.70345,0,0,0,.32017-1.06712c.04343-.15.09441-.29772.17531-.55081a12.43964,12.43964,0,0,0,.28755,1.81294,1.03959,1.03959,0,0,0,1.84484.39173c.13485-.141.26195-.2895.39088-.43608.25417-.289.486-.2537.64123.08053a.864.864,0,0,0,.8714.57955,1.03773,1.03773,0,0,0,.94223-.66475,3.82041,3.82041,0,0,1,.33083-.52013l.31744.622a3.32963,3.32963,0,0,0,.54553-.42887,1.49067,1.49067,0,0,0,.2742-.56446,1.8332,1.8332,0,0,0,.00161-.49531,2.4468,2.4468,0,0,0-.43227.11839c-.31379.1494-.65461.298-.80812-.14576-.18248-.5275-.27984-1.08445-.40158-1.578l.59112-.3677c.66951,1.06116,1.36426,2.122,2.01064,3.21161a2.44214,2.44214,0,0,1,.34756,1.09041c.09484,2.208.1469,4.4179.21173,6.6272.006.2032.00079.40672.00079.69727a1.43533,1.43533,0,0,0,.92142-1.25143c.07358-.87085.04556-1.75052.05413-2.62654.00578-.59063.00111-1.18137.00111-1.90884l1.98959,4.03537a2.71228,2.71228,0,0,0,.01294-2.20677c-.64988-1.32681-1.34638-2.63074-2.01714-3.94743a2.00084,2.00084,0,0,1-.21646-.58013c-.07714-.49678-.12336-.99865-.1706-1.49955-.00945-.10016.016-.28819.052-.295.35959-.06781.19057-.29571.12625-.44576-.25463-.594-.51929-1.18456-.80756-1.76279a5.115,5.115,0,0,0-.53266-.68673l-.39813,1.211a5.65894,5.65894,0,0,0-.67953-.70193,6.3954,6.3954,0,0,0-.89757-.47485ZM12.20933,34.94655l-.0943.08272a11.482,11.482,0,0,0,1.05118.9379,4.26677,4.26677,0,0,0,2.61422.56759c6.08367-.04013,12.16751-.053,18.25131-.07291a1.97774,1.97774,0,0,1,.26654.02309c.09782.45246.1523.8474.27413,1.22034.089.27233.28921.37029.57077.15937a.80357.80357,0,0,1,.44179-.1331c.68292-.01434,1.36638-.01312,2.04943-.00328a.74029.74029,0,0,1,.40131.10765c.582.4178,1.18518.23756,1.272-.47718a4.19329,4.19329,0,0,0-.17408-1.5646c-.12752-.46666-.50463-.62657-1.02943-.603-.946.04248-1.89641-.015-2.845-.03079l.12108-.17044-.55555-.99658c-.62067.23745-.59756.65582-.4462,1.172ZM32.47043,12.422l-.20992.02a3.15941,3.15941,0,0,0-.41081,1.92609c.08584.72458.18289,1.44836.246,2.175.16705,1.92409.28851,3.85266.48857,5.77314a2.3732,2.3732,0,0,1-.8734,2.37216c-.53133.39879-1.04713.82365-1.60861,1.175-.36592.229-.361.44861-.08356.66924a.961.961,0,0,0,.68333.25125,2.58607,2.58607,0,0,0,1.15692-.549,4.87813,4.87813,0,0,0,1.56666-3.45386,37.85357,37.85357,0,0,0-.56374-7.27114c-.04562-.25619-.11346-.54666.232-.71646a.41844.41844,0,0,0,.10575-.38183C32.97354,13.74269,32.7169,13.08409,32.47043,12.422Zm1.39471-.17311c-.1235.22141-.236.337-.2507.464a6.89771,6.89771,0,0,0-.15528,1.91913,59.04686,59.04686,0,0,1,1.023,8.4397c.01648.50962.061,1.01834.10207,1.68059.21075-.24256.383-.35957.43535-.51655a3.88922,3.88922,0,0,0,.33985-1.34641c-.09533-1.73048-.26-3.45768-.42628-5.18346-.07914-.82138-.22229-1.6365-.32951-2.45536a1.50578,1.50578,0,0,1,.02127-.31392l.50415-.16977Zm-18.207,3.91245c.78939.17867,1.35321.12744,1.78711-.45758.26937-.36319.617-.668.89077-1.02839.19765-.26017.63765-.48057.26416-.928-.033-.03952.06665-.19852.11593-.29637a.68187.68187,0,0,0-.1461-.95564.63058.63058,0,0,0-.88223.10679.76525.76525,0,0,0-.03621,1.02487c.0825.11236.18441.21046.31653.359Zm20.96853.62853a2.09,2.09,0,0,0-.75357-.14581c-.11439.02326-.234.33416-.23991.51878a2.06754,2.06754,0,0,0,1.44235,1.52074c.32047-.51686-.2359-1.32446.58743-1.67162-.04373-.74532-.23035-1.088-.59954-1.03733C36.53913,16.04661,36.60189,16.46253,36.62666,16.78991ZM7.42755,21.38912l.12651.10944c.12518-.0534.25525-.09766.37474-.16169.74124-.39722,1.48453-.791,2.21662-1.20461.18183-.10272.5176-.12184.3765-.49756a.54092.54092,0,0,0-.70573-.3408,2.824,2.824,0,0,0-1.64051.969A11.6339,11.6339,0,0,0,7.42755,21.38912Zm.25474,3.92321v-2.29a3.33694,3.33694,0,0,0-.48036,3.19527c.079.16467.5267.34333.62035.27239a1.65489,1.65489,0,0,0,.51112-.75846c.08591-.2485.14787-.58-.21676-.77034ZM36.0451,20.995l.24675.14129c.62539-.52935,1.27729-1.03182,1.85884-1.60558.15968-.15754.10888-.5284.15466-.80137l-.1912-.08169c-.649.531-1.31981,1.03856-1.93115,1.60982C36.03582,20.395,36.08579,20.74351,36.0451,20.995Zm-8.27324,4.26044c-.32423-.26706.215-.87275-.37991-.87192-.24467.00034-.48876.41234-.73312.63709l.47083.43525c.07233.66548.13345.6977.8575.384a4.45171,4.45171,0,0,0,.58639-.233,1.83689,1.83689,0,0,0,.3442-.37427,1.46874,1.46874,0,0,0-.52462-.18687A2.31937,2.31937,0,0,0,27.77186,25.25544Zm10.10779-2.44951c.08879-.03731.1598-.04626.19809-.08642a2.28678,2.28678,0,0,0-.05328-2.41464c-.07073-.0641-.23323-.12027-.29273-.08312-.10886.068-.25573.22045-.24176.31664C37.59878,21.28807,37.74215,22.03272,37.87965,22.80593Zm2.53059,2.75072c.03133-.087.12175-.21467.10545-.3268-.01719-.11831-.12728-.30616-.21247-.31517a1.626,1.626,0,0,0-.64235.0842c-.0464.01461-.08573.2963-.035.33607.42026.32953.24068.57707-.06119.85136-.07517.0683-.12888.28331-.08376.33381a.44561.44561,0,0,0,.36745.13676,2.43838,2.43838,0,0,0,.70266-.32111,1.96609,1.96609,0,0,0,.35731-.42732ZM23.86216,18.32981l-.3026-.25867c-.07783.11269-.23721.24223-.21807.33488.05556.26892.11329.64963.29905.75152a1.1725,1.1725,0,0,0,.90868.01425c.16142-.06767.2275-.43711.27054-.68256.02276-.12976-.09545-.28424-.15-.42756l-.39333.23449C24.13337,17.95454,23.99168,18.05057,23.86216,18.32981ZM31.2,15.94561c-.16413-.3623-.30323-.16181-.4095.01675l-.34218-.20614a1.15335,1.15335,0,0,0-.19291.35545.69806.69806,0,0,0,.73927.85554.72077.72077,0,0,0,.75669-.8534,1.30366,1.30366,0,0,0-.19221-.40071Zm-.33716-1.00554a1.62536,1.62536,0,0,0,.09918-2.20728c-.11231-.115-.34883-.10863-.52822-.15809-.04009.187-.17492.42866-.104.55174A2.72335,2.72335,0,0,1,30.86285,14.94007Zm-12.8941.94176a.86257.86257,0,0,0-.72574,1.00469.6169.6169,0,0,0,.696.58337c.37062-.05867.58635-.40029.54163-.87247l-.51194.19127Zm-9.37159-1.593a1.38409,1.38409,0,0,0,.234-1.69149c-.10987-.15613-.38267-.19762-.581-.29154a2.28086,2.28086,0,0,0-.06118.63366,9.41142,9.41142,0,0,0,.30141,1.03622C8.521,14.07565,8.55771,14.1737,8.59716,14.28887Zm14.57592-1.77542-.27409-.47533c-.12715.14535-.31949.27192-.36792.44a5.11861,5.11861,0,0,0-.172,1.09188c-.00774.12319.1257.25524.1946.38325.10677-.08309.27342-.146.3094-.25294C22.98522,13.33743,23.06114,12.959,23.17308,12.51345ZM17.136,23.13943a1.30272,1.30272,0,0,0-.08739-1.78277.432.432,0,0,0-.38981-.01869.40376.40376,0,0,0-.0948.36908C16.7338,22.188,16.93923,22.65637,17.136,23.13943Zm2.5699-10.107.09.05239c0,.04832-.01913.10958.0033.14272.10054.1486.201.39165.32412.406a.6694.6694,0,0,0,.4612-.2722c.13613-.16626.09107-.32314-.17275-.35365a.60593.60593,0,0,1-.02279-.339c.03457-.11739.16482-.20585.20258-.32326a1.46947,1.46947,0,0,0,.02009-.39194c-.11223.03587-.27531.037-.32776.11372C20.07262,12.37628,19.89557,12.70867,19.70589,13.03243Z" style="fill: #3d9635"/>
        <path d="M12.75956,13.55017c.67145-.33036.79744.32628,1.16477.63022A3.46381,3.46381,0,0,1,13.846,13.304a1.2658,1.2658,0,0,1,.36363-.67614c.19711-.185.45273-.15975.57715.15657.21939.55777.44457,1.11328.66369,1.67116.149.37928.09637.64761-.44308.62767l.43337,3.64369c.70673-.23887.676.25552.74209.80284a4.59188,4.59188,0,0,0,.546-.37178c.08981-.08316.113-.23376.1903-.33573.24874-.32808.50992-.30381.7145.05934.0531.09426.09591.19433.19583.39906a2.67877,2.67877,0,0,1,.23752-.68715,2.43643,2.43643,0,0,1,.579-.40273,4.39928,4.39928,0,0,1-.2087,2.0415.76138.76138,0,0,1-1.08787.32647.55709.55709,0,0,0-.599.08758c-.40425.34933-.65346.36726-1.29467.16078,0,.59741.01784,1.17282-.00315,1.74682A4.44792,4.44792,0,0,1,11.09,26.6972a2.02777,2.02777,0,0,1-2.1304-2.06255,10.46679,10.46679,0,0,1,.12055-1.79111c.05438-.37046.20349-.40715.5209-.25517.0981-.46747.18378-.9374.30264-1.39879.02981-.11569.16623-.20391.25365-.30476.07918.10752.20832.20665.228.32414.05617.33454.07332.6762.09583,1.01572.06689,1.00879.60739,1.35839,1.54977.98524a2.79791,2.79791,0,0,0,1.53593-1.35729,5.73423,5.73423,0,0,0,.23839-.72859,7.02068,7.02068,0,0,1-.659.39535.78524.78524,0,0,1-1.16159-.71728,4.95946,4.95946,0,0,1,.10652-1.20448,1.24612,1.24612,0,0,1,1.01835-.94294c.4553-.09584.70757.23568.94786.55473.0769.10211.17189.19059.35657.3923a2.0358,2.0358,0,0,0,.18554-.65832c-.17477-1.35069-.37908-2.69755-.57413-4.04561l-.1502-.02788a1.24207,1.24207,0,0,0-.06917.39125c.08191.52721.23606,1.04719.2742,1.57628a1.32266,1.32266,0,0,1-1.20957,1.44877,1.583,1.583,0,0,1-.71229-.2017,4.04393,4.04393,0,0,1-.55207-.3561,5.77882,5.77882,0,0,0-.07031.60172c.00069.94347.02914,1.88735.00725,2.83014a2.968,2.968,0,0,1-.2151.9898c-.07393.18905-.28536.32433-.435.48378l-.13494-.051c-.04237-.70455-.091-1.40879-.12512-2.11373-.01854-.38265-.01479-.76586-.02171-1.1489-.00529-.29235-.09881-.49107-.43616-.53753a.95238.95238,0,0,1-.90756-1.05815c-.01434-.67512-.00323-1.35077-.00323-2.02619l-.12928-.01946a3.39749,3.39749,0,0,0-.13014.5172c-.04342.45313-.0431.9111-.10032,1.36205-.04708.371-.12171.772-.596.83526a.698.698,0,0,1-.79484-.63634,20.31452,20.31452,0,0,1-.24264-2.213,3.079,3.079,0,0,1,.13754-1.03529c.555.73433.34008,1.70488.84929,2.59376.09718-.28152.17021-.44427.2091-.6148.12237-.53661.21421-1.08084.35517-1.61223a1.39791,1.39791,0,0,1,.32975-.58747.63445.63445,0,0,1,.49178-.20683.57631.57631,0,0,1,.31713.42435c.04836.54572.02827,1.09713.05,1.64575.012.30262.05541.604.08466.90594l.24854-.00017a4.57,4.57,0,0,0,.04072-.74077c-.10747-1.04708-.23761-2.09183-.35709-3.13771a.4635.4635,0,0,1,.00662-.24115c.075-.14828.15954-.371.2765-.3964a.47516.47516,0,0,1,.4.24956c.14659.59416.25554,1.19918.34606,1.80511.08126.544.11589,1.09477.18445,1.64088a1.31259,1.31259,0,0,0,.13353.323l.12665-.04106c-.04687-.16884-.08051-.34275-.14289-.50566a3.22912,3.22912,0,0,1-.157-2.09742c.03607-.12511.15345-.32141.22921-.31954a.53475.53475,0,0,1,.38508.21734,2.89016,2.89016,0,0,1,.45248,1.9025c-.06559.53929.31884,1.031,1.05971,1.15615-.10709-.41165-.192-.76672-.29239-1.11737-.15427-.53895-.34616-1.06906-.46369-1.61548-.03708-.1724.1129-.385.17718-.57921Zm1.93107,7.4647-.14918-.02244c-.05253.22261-.11045.44411-.15667.668a4.16491,4.16491,0,0,1-1.45632,2.62506,2.08346,2.08346,0,0,1-1.67973.47634,1.95571,1.95571,0,0,1-1.54546-1.57778,4.99113,4.99113,0,0,0,.00221.50088c.14046,1.22443.68736,1.67693,1.91121,1.60466a2.77238,2.77238,0,0,0,1.78264-.80559,4.1874,4.1874,0,0,0,1.22283-2.64168C14.65594,21.56787,14.66839,21.29077,14.69063,21.01487ZM13.35052,20.106l-.29114-.24087-.24558.29867c.07819.06328.16329.184.23287.1756C13.13785,20.32842,13.21677,20.2156,13.35052,20.106Z" style="fill: #fff"/>
        <path d="M42.70073,24.1326l-.56258-1.01741c0,.49277.00109.88447-.00019,1.27616-.00475,1.44528.0443,2.89339-.03034,4.33507a2.67015,2.67015,0,0,1-2.51073,2.69485,1.986,1.986,0,0,1-.73357-.20968,2.32249,2.32249,0,0,1,.37736-.627c.48783-.41718,1.06037-.74141,1.51854-1.18577.7469-.72438.52637-1.69469.50123-2.59033-.02412-.85994-.11612-1.718-.18222-2.631l-.44954.33915L40.439,20.08336l-.08156-.00312-.31882.75505-.15641-.02288-.07692-1.19934-.14221.00508c0,1.22657.009,2.45324-.00378,3.67968a1.86226,1.86226,0,0,1-.66913,1.60051.986.986,0,0,1-1.44367-.00228,5.42484,5.42484,0,0,1-.53737-.49316c-.33857-.35094-.51415-.33049-.675.14315-.12427.366-.16631.75924-.27793,1.13044a3.08645,3.08645,0,0,1-.32821.75194.59252.59252,0,0,1-.85487.19241A2.86119,2.86119,0,0,1,34.04,22.87033c.01362-.01885.05726-.016.09261-.02468.056.49389.10805.98563.17028,1.47607a.75629.75629,0,0,0,.10133.323c.16513.2427.352.47062.53019.70441a5.67519,5.67519,0,0,0,.47544-.66336c.33185-.63138.61022-1.29179.95914-1.913.27307-.48617.62265-.46718.93281-.00129.15308.22993.2909.47113.45719.69091.30172.39879.57029.37451.70624-.11455a5.56163,5.56163,0,0,0,.2535-1.61752c-.0437-1.49378-.15674-2.98588-.26367-4.47711a1.456,1.456,0,0,0-.23-.6684c-.46563-.70542-.96051-1.39158-1.44639-2.08358a3.077,3.077,0,0,1-.23656-2.1799l.14479-.08986,1.21843,1.18885a4.1528,4.1528,0,0,1,.17882-.89125c.159-.37037.38249-.358.56877.00545.28151.5492.54919,1.10577.8102,1.66506.10382.22246.2233.47249-.16684.56629a.16971.16971,0,0,0-.1024.12686,7.10168,7.10168,0,0,0,.19537,1.53191,3.945,3.945,0,0,0,.84056,1.26044c-.22037-1.37119-.43626-2.74313-.66377-4.11314a1.2419,1.2419,0,0,1,.26347-1.13879c.21416-.22957.43779-.28255.56.04949.26213.71216.48593,1.43848.72049,2.16061a.26213.26213,0,0,1-.00552.19018c-.56312.953-.10055,1.81473.254,2.67305.15375.37216.40965.70087.59457,1.06191.10372.20249.20651.43722-.16675.52125a.29372.29372,0,0,0-.14047.251,8.64486,8.64486,0,0,0,.44789,1.56673,5.0047,5.0047,0,0,1,.85914,2.08791c-.00108.3742-.0404.74828-.06238,1.12242Z" style="fill: #fff"/>
        <path d="M21.30193,17.47352a7.78835,7.78835,0,0,1,1.23728,4.05134,4.2624,4.2624,0,0,1,2.67092-1.66214c.11354-.02955.23007-.23147.2568-.37046.04844-.2518-.004-.5233.04642-.77438a1.27879,1.27879,0,0,1,1.32838-1.10574,1.445,1.445,0,0,1,1.0782,1.53577,1.99684,1.99684,0,0,1-1.53382,1.86078c-.27948.08351-.564.15006-.84618.22458l.01625.1209h3.55938c-.18559.60854-.32361,1.10142-.49338,1.58311a.44518.44518,0,0,1-.2905.20981c-.83482.1988-1.67365.38078-2.51093.56933a2.29516,2.29516,0,0,0-.56083.14236.556.556,0,0,0-.08652.98734c.1765.14092.42491.21.56255.37634a1.09891,1.09891,0,0,1,.26185.63874c.00037.3021-.23171.42-.54638.40079a3.78594,3.78594,0,0,1-2.95594-1.65209c-.10177-.14-.1994-.28307-.34987-.49717-.14421.18977-.25551.31737-.34592.45836a5.76868,5.76868,0,0,1-1.90231,1.859,1.54324,1.54324,0,0,1-2.38172-.71519c-.0359-.072-.073-.14336-.13294-.261a14.0771,14.0771,0,0,1-3.09357,1.117L14.215,26.433a2.66146,2.66146,0,0,1,.32417-.37069c.81406-.647,1.6204-1.3057,2.46275-1.9142a1.45393,1.45393,0,0,0,.6791-.93832,5.91074,5.91074,0,0,1,.41986-1.05011l.16294.02908.03836.77524a1.93041,1.93041,0,0,0,.98892-3.11742,1.329,1.329,0,0,1-.17676-1.41923.54083.54083,0,0,1,.99572-.14226,4.88856,4.88856,0,0,1,.54083,1.023c.039.0912-.07153.24626-.18488.36124a3.46122,3.46122,0,0,1-.08344,2.897,5.77192,5.77192,0,0,1-1.9862,2.14852c.18477.63089.59565.77445,1.16359.43924a3.79332,3.79332,0,0,0,1.8281-4.65687c-.16916-.57542-.39061-1.13533-.56587-1.70914A1.024,1.024,0,0,1,21.30193,17.47352Zm3.80634,5.34391c-.22859-.16674-.30907-.27171-.404-.287a13.49261,13.49261,0,0,0-1.58558-.19577c-.10438-.00427-.33194.29691-.31284.43a2.161,2.161,0,0,0,1.29176,1.70106A1.21428,1.21428,0,0,1,25.10827,22.81743Z" style="fill: #fff"/>
        <path d="M26.43657,13.0374l.27-.911a6.3954,6.3954,0,0,1,.89757.47485,5.65894,5.65894,0,0,1,.67953.70193l.39813-1.211a5.115,5.115,0,0,1,.53266.68673c.28827.57823.55293,1.1688.80756,1.76279.06432.15005.23334.378-.12625.44576-.03592.00678-.06141.19481-.052.295.04724.5009.09346,1.00277.1706,1.49955a2.00084,2.00084,0,0,0,.21646.58013c.67076,1.31669,1.36726,2.62062,2.01714,3.94743a2.71228,2.71228,0,0,1-.01294,2.20677l-1.98959-4.03537c0,.72747.00467,1.31821-.00111,1.90884-.00857.876.01945,1.75569-.05413,2.62654a1.43533,1.43533,0,0,1-.92142,1.25143c0-.29055.00517-.49407-.00079-.69727-.06483-2.2093-.11689-4.41917-.21173-6.6272a2.44214,2.44214,0,0,0-.34756-1.09041c-.64638-1.08957-1.34113-2.15045-2.01064-3.21161l-.59112.3677c.12174.49355.2191,1.0505.40158,1.578.15351.44375.49433.29516.80812.14576a2.44667,2.44667,0,0,1,.43228-.11839,1.83359,1.83359,0,0,1-.00162.49531,1.49067,1.49067,0,0,1-.2742.56446,3.32963,3.32963,0,0,1-.54553.42887l-.31744-.622a3.82041,3.82041,0,0,0-.33083.52013,1.03773,1.03773,0,0,1-.94223.66475.864.864,0,0,1-.8714-.57955c-.1552-.33423-.38706-.3695-.64123-.08053-.12893.14658-.256.29508-.39088.43608a1.03959,1.03959,0,0,1-1.84484-.39173,12.43964,12.43964,0,0,1-.28755-1.81294c-.0809.25309-.13188.40086-.17531.55081a6.70345,6.70345,0,0,1-.32017,1.06712c-.10644.21977-.35178.50677-.54574.51518a.966.966,0,0,1-.70929-.38939,3.84562,3.84562,0,0,1-.58151-2.65356,8.88762,8.88762,0,0,1,.18414-.87371l.2149-.02174.58933,2.66668.22363-.00138a6.50868,6.50868,0,0,1,.20422-.648c.29838-.696.593-1.395.93242-2.071.07558-.15053.38041-.33272.48747-.28654a.714.714,0,0,1,.3492.50623c.05528.54824.03394,1.10393.05163,1.65641a1.17839,1.17839,0,0,0,.073.56607c.14084.21516.35544.47391.576.5154.171.03216.46464-.196.59037-.38419a2.57654,2.57654,0,0,0,.04309-2.21251,1.82644,1.82644,0,0,1,.21442-1.5805,2.35061,2.35061,0,0,1,.29175-.2808,3.1044,3.1044,0,0,1,.2444.61758c.11348.76888.19534,1.54235.29814,2.3129a6.161,6.161,0,0,0,.19573,1.09219c.05.15373.35541.37959.41713.345.1796-.10074.43149-.33591.41052-.48365a6.28227,6.28227,0,0,0-.40744-1.57574,1.62784,1.62784,0,0,1-.17021-1.2589c.09437-.24456.29809-.568.50557-.6133.20156-.044.48948.1973.70351.3605A1.14233,1.14233,0,0,1,26.43657,13.0374Z" style="fill: #fff"/>
        <path d="M12.20933,34.94655l22.16918.21883c-.15136-.51623-.17447-.9346.4462-1.172l.55555.99658-.12108.17044c.94858.01575,1.899.07327,2.845.03079.5248-.02357.90191.13634,1.02943.603a4.19329,4.19329,0,0,1,.17408,1.5646c-.08679.71474-.69.895-1.272.47718a.74029.74029,0,0,0-.40131-.10765c-.68305-.00984-1.36651-.01106-2.04943.00328a.80357.80357,0,0,0-.44179.1331c-.28156.21092-.4818.113-.57077-.15937-.12183-.37294-.17631-.76788-.27413-1.22034a1.97774,1.97774,0,0,0-.26654-.02309c-6.0838.01994-12.16764.03278-18.25131.07291a4.26677,4.26677,0,0,1-2.61422-.56759,11.482,11.482,0,0,1-1.05118-.9379Zm24.249,1.69711,0-.043a8.18391,8.18391,0,0,0-.824.00757,2.07839,2.07839,0,0,0-.473.16583c.14266.09039.28188.18707.42982.2678a.2664.2664,0,0,0,.18957.02316,2.54147,2.54147,0,0,1,1.77316-.013c.05744.02208.17951-.12386.27159-.1918-.08362-.07219-.16365-.20117-.25147-.2067C37.20339,36.63021,36.83044,36.64366,36.45833,36.64366Z" style="fill: #fff"/>
        <path d="M32.47043,12.422c.24647.662.50311,1.32065.72917,1.98959a.41844.41844,0,0,1-.10575.38183c-.34545.1698-.27761.46027-.232.71646a37.85357,37.85357,0,0,1,.56374,7.27114,4.87813,4.87813,0,0,1-1.56666,3.45386,2.58607,2.58607,0,0,1-1.15692.549.961.961,0,0,1-.68333-.25125c-.27748-.22063-.28236-.44028.08356-.66924.56148-.35132,1.07728-.77618,1.60861-1.175a2.3732,2.3732,0,0,0,.8734-2.37216c-.20006-1.92048-.32152-3.849-.48857-5.77314-.0631-.72665-.16015-1.45043-.246-2.175a3.15941,3.15941,0,0,1,.41081-1.92609Z" style="fill: #fff"/>
        <path d="M33.86514,12.24893,35.129,14.76686l-.50415.16977a1.50578,1.50578,0,0,0-.02127.31392c.10722.81886.25037,1.634.32951,2.45536.16627,1.72578.331,3.453.42628,5.18346a3.88922,3.88922,0,0,1-.33985,1.34641c-.05234.157-.2246.274-.43535.51655-.04107-.66225-.08559-1.171-.10207-1.68059a59.04686,59.04686,0,0,0-1.023-8.4397,6.89771,6.89771,0,0,1,.15528-1.91913C33.62911,12.586,33.74164,12.47034,33.86514,12.24893Z" style="fill: #fff"/>
        <path d="M15.65813,16.16138l2.31-2.17533c-.13212-.14858-.234-.24668-.31653-.359a.76525.76525,0,0,1,.03621-1.02487.63058.63058,0,0,1,.88223-.10679.68187.68187,0,0,1,.1461.95564c-.04928.09785-.14892.25685-.11593.29637.37349.44748-.06651.66788-.26416.928-.2738.3604-.6214.6652-.89077,1.02839C17.01134,16.28882,16.44752,16.34005,15.65813,16.16138Z" style="fill: #fff"/>
        <path d="M36.62666,16.78991c-.02477-.32738-.08753-.7433.43676-.81524.36919-.05066.55581.292.59954,1.03733-.82333.34716-.267,1.15476-.58743,1.67162a2.06754,2.06754,0,0,1-1.44235-1.52074c.00591-.18462.12552-.49552.23991-.51878A2.09,2.09,0,0,1,36.62666,16.78991Z" style="fill: #fff"/>
        <path d="M7.42755,21.38912a11.6339,11.6339,0,0,1,.74813-1.12621,2.824,2.824,0,0,1,1.64051-.969.54092.54092,0,0,1,.70573.3408c.1411.37572-.19467.39484-.3765.49756-.73209.41357-1.47538.80739-2.21662,1.20461-.11949.064-.24956.10829-.37474.16169Z" style="fill: #fff"/>
        <path d="M7.68229,25.31233l.43435-.35115c.36463.1903.30267.52184.21676.77034a1.65489,1.65489,0,0,1-.51112.75846c-.09365.07094-.54131-.10772-.62035-.27239a3.33694,3.33694,0,0,1,.48036-3.19527Z" style="fill: #fff"/>
        <path d="M36.0451,20.995c.04069-.25149-.00928-.6.1379-.73753.61134-.57126,1.28216-1.07886,1.93115-1.60982l.1912.08169c-.04578.273.005.64383-.15466.80137-.58155.57376-1.23345,1.07623-1.85884,1.60558Z" style="fill: #fff"/>
        <path d="M27.77186,25.25544a2.31937,2.31937,0,0,1,.62127-.20974,1.46874,1.46874,0,0,1,.52462.18687,1.83689,1.83689,0,0,1-.3442.37427,4.45171,4.45171,0,0,1-.58639.233c-.724.3137-.78517.28148-.8575-.384l-.47083-.43525c.24436-.22475.48845-.63675.73312-.63709C27.9869,24.38269,27.44763,24.98838,27.77186,25.25544Z" style="fill: #fff"/>
        <path d="M37.87965,22.80593c-.1375-.77321-.28087-1.51786-.38968-2.26754-.014-.09619.1329-.24867.24176-.31664.0595-.03715.222.019.29273.08312a2.28678,2.28678,0,0,1,.05328,2.41464C38.03945,22.75967,37.96844,22.76862,37.87965,22.80593Z" style="fill: #fff"/>
        <path d="M40.41024,25.55665l.49809.3518a1.96609,1.96609,0,0,1-.35731.42732,2.43838,2.43838,0,0,1-.70266.32111.44561.44561,0,0,1-.36745-.13676c-.04512-.0505.00859-.26551.08376-.33381.30187-.27429.48145-.52183.06119-.85136-.05072-.03977-.01139-.32146.035-.33607a1.626,1.626,0,0,1,.64235-.0842c.08519.009.19528.19686.21247.31517C40.532,25.342,40.44157,25.46961,40.41024,25.55665Z" style="fill: #fff"/>
        <path d="M12.75956,13.54044l-.0102.00972a2.91438,2.91438,0,0,1-.71189.07957.73947.73947,0,0,1-.53326-1.04588c.10767-.21989.20911-.20162.39314.01779l.51961-.08391.0064.099L12.75474,12.4c.06519.1183.19331.24245.183.35375A5.59883,5.59883,0,0,1,12.75956,13.54044Z" style="fill: #fff"/>
        <path d="M23.86216,18.32981c.12952-.27924.27121-.37527.41425-.03365l.39333-.23449c.05457.14332.17278.2978.15.42756-.043.24545-.10912.61489-.27054.68256a1.1725,1.1725,0,0,1-.90868-.01425c-.18576-.10189-.24349-.4826-.29905-.75152-.01914-.09265.14024-.22219.21807-.33488Z" style="fill: #fff"/>
        <path d="M31.2,15.94561l.35916-.23251a1.30366,1.30366,0,0,1,.19221.40071.72077.72077,0,0,1-.75669.8534.69806.69806,0,0,1-.73927-.85554,1.15335,1.15335,0,0,1,.19291-.35545l.34218.20614C30.89678,15.7838,31.03588,15.58331,31.2,15.94561Z" style="fill: #fff"/>
        <path d="M30.86285,14.94007a2.72335,2.72335,0,0,0-.53305-1.81363c-.07091-.12308.06392-.3647.104-.55174.17939.04946.41591.04311.52822.15809A1.62536,1.62536,0,0,1,30.86285,14.94007Z" style="fill: #fff"/>
        <path d="M17.96875,15.88183v.90686l.51194-.19127c.04472.47218-.171.8138-.54163.87247a.6169.6169,0,0,1-.696-.58337A.86257.86257,0,0,1,17.96875,15.88183Z" style="fill: #fff"/>
        <path d="M8.59716,14.28887c-.03945-.11517-.07616-.21322-.10671-.31315A9.41142,9.41142,0,0,1,8.189,12.9395a2.28086,2.28086,0,0,1,.06118-.63366c.19829.09392.47109.13541.581.29154A1.38409,1.38409,0,0,1,8.59716,14.28887Z" style="fill: #fff"/>
        <path d="M23.17308,12.51345c-.11194.44558-.18786.824-.31,1.18682-.036.10691-.20263.16985-.3094.25294-.0689-.128-.20234-.26006-.1946-.38325a5.11861,5.11861,0,0,1,.172-1.09188c.04843-.168.24077-.29461.36792-.44Z" style="fill: #fff"/>
        <path d="M17.136,23.13943c-.19676-.48306-.40219-.95143-.572-1.43238a.40376.40376,0,0,1,.0948-.36908.432.432,0,0,1,.38981.01869A1.30272,1.30272,0,0,1,17.136,23.13943Z" style="fill: #fff"/>
        <path d="M19.70589,13.03243c.18968-.32376.36673-.65615.578-.96517.05245-.07673.21553-.07785.32776-.11372a1.46947,1.46947,0,0,1-.02009.39194c-.03776.11741-.168.20587-.20258.32326a.60593.60593,0,0,0,.02279.339c.26382.03051.30888.18739.17275.35365a.6694.6694,0,0,1-.4612.2722c-.12316-.01436-.22358-.25741-.32412-.406-.02243-.03314-.0033-.0944-.0033-.14272Z" style="fill: #fff"/>
        <path d="M14.69063,21.01487c-.02224.2759-.03469.553-.06847.82747A4.1874,4.1874,0,0,1,13.39933,24.484a2.77238,2.77238,0,0,1-1.78264.80559c-1.22385.07227-1.77075-.38023-1.91121-1.60466a4.99113,4.99113,0,0,1-.00221-.50088,1.95571,1.95571,0,0,0,1.54546,1.57778,2.08346,2.08346,0,0,0,1.67973-.47634,4.16491,4.16491,0,0,0,1.45632-2.62506c.04622-.22391.10414-.44541.15667-.668Z" style="fill: #3d9635"/>
        <path d="M13.35052,20.106c-.13375.10962-.21267.22244-.30385.2334-.06958.00837-.15468-.11232-.23287-.1756l.24558-.29867Z" style="fill: #3d9635"/>
        <path d="M25.10827,22.81743a1.21428,1.21428,0,0,0-1.01067,1.64826,2.161,2.161,0,0,1-1.29176-1.70106c-.0191-.13307.20846-.43425.31284-.43a13.49261,13.49261,0,0,1,1.58558.19577C24.7992,22.54572,24.87968,22.65069,25.10827,22.81743Z" style="fill: #3d9635"/>
        <path d="M36.45833,36.64366c.3721,0,.74505-.01345,1.11569.00988.08781.00553.16785.13451.25146.2067-.09207.06794-.21415.21388-.27159.1918a2.54147,2.54147,0,0,0-1.77316.013.2664.2664,0,0,1-.18957-.02316c-.14793-.08073-.28716-.17741-.42982-.2678a2.07839,2.07839,0,0,1,.473-.16583,8.18394,8.18394,0,0,1,.824-.00757Z" style="fill: #3d9635"/>
      </g>
    </g>
  </g>
</svg>
