<svg width="16" height="16" viewBox="0 0 16 16" fill="none" xmlns="http://www.w3.org/2000/svg">
<path d="M16 8C16 12.4183 12.4183 16 8 16C3.58172 16 0 12.4183 0 8C0 3.58172 3.58172 0 8 0C12.4183 0 16 3.58172 16 8Z" fill="#0052B5"/>
<path d="M6 4.4V0.252035C6.32577 0.168189 6.65956 0.104346 7 0.0618937C7.32759 0.0210433 7.66134 0 8 0C8.33866 0 8.67241 0.0210433 9 0.0618937C9.34044 0.104346 9.67424 0.168189 10 0.252035V5.5L13.4 2.09739C13.7665 2.43288 14.3011 3.10205 14.6 3.5L12 6H15.748C15.8318 6.32577 15.8957 6.65956 15.9381 7C15.979 7.32759 16 7.66134 16 8C16 8.33866 15.979 8.67241 15.9381 9C15.8957 9.34044 15.8318 9.67424 15.748 10H11.4L14.4006 12.8C13.9706 13.3725 13.4655 13.8855 12.9 14.3242L10 11.4V15.748C9.67424 15.8318 9.34044 15.8957 9 15.9381C8.67241 15.979 8.33866 16 8 16C7.66134 16 7.32759 15.979 7 15.9381C6.65956 15.8957 6.32576 15.8318 6 15.748L6 10.6L2.7 13.9926C2.25246 13.5965 1.84962 13.151 1.5 12.6647L4.4 10H0.252035C0.168189 9.67424 0.104346 9.34044 0.0618942 9C0.0210435 8.67241 0 8.33866 0 8C0 7.66134 0.0210433 7.32759 0.0618937 7C0.104346 6.65956 0.168189 6.32577 0.252035 6H4.5L1.6 3.19922C2.04386 2.60844 2.56762 2.08112 3.15523 1.63329L6 4.4Z" fill="white"/>
<path d="M6 6L2.34898 2.33731C2.15593 2.52998 1.97266 2.73245 1.8 2.94392L5 6H6Z" fill="#D90026"/>
<path d="M10 6L13.651 2.33731C13.8441 2.52997 14.0273 2.73245 14.2 2.94392L11 6H10Z" fill="#D90026"/>
<path d="M10 10.0687L13.651 13.7313C13.8441 13.5387 14.0273 13.3362 14.2 13.1247L11 10.0687H10Z" fill="#D90026"/>
<path d="M6 10.0687L2.34898 13.7313C2.15593 13.5387 1.97266 13.3362 1.8 13.1247L5 10.0687H6Z" fill="#D90026"/>
<path d="M0.0618937 7C0.0210433 7.32759 0 7.66134 0 8C0 8.33866 0.0210435 8.67241 0.0618942 9H7V15.9381C7.32759 15.979 7.66134 16 8 16C8.33866 16 8.67241 15.979 9 15.9381V9H15.9381C15.979 8.67241 16 8.33866 16 8C16 7.66134 15.979 7.32759 15.9381 7H9V0.0618937C8.60857 0.00301328 8.40785 0 8 0C7.66134 0 7.32759 0.0210433 7 0.0618937V7H0.0618937Z" fill="#D90026"/>
</svg>
