<svg width="16" height="16" viewBox="0 0 16 16" fill="none" xmlns="http://www.w3.org/2000/svg">
<path d="M8 16C3.58172 16 -1.93129e-07 12.4183 0 8C1.93129e-07 3.58172 3.58172 -1.93129e-07 8 0C12.4183 1.93129e-07 16 3.58172 16 8C16 12.4183 12.4183 16 8 16Z" fill="#FFDB44"/>
<path d="M15.4963 5.2C14.3613 2.16267 11.4332 1.50071e-07 8 0C4.56678 -1.50071e-07 1.63868 2.16267 0.503687 5.2L15.4963 5.2Z" fill="#D90026"/>
<path d="M0.503687 10.8C1.63868 13.8373 4.56678 16 8 16C11.4332 16 14.3613 13.8373 15.4963 10.8L0.503687 10.8Z" fill="#D90026"/>
</svg>
