<svg width="16" height="16" viewBox="0 0 16 16" fill="none" xmlns="http://www.w3.org/2000/svg">
<path d="M8 16C3.58172 16 -5.4282e-07 12.4183 -3.49691e-07 8C-1.56562e-07 3.58172 3.58172 -5.4282e-07 8 -3.49691e-07C12.4183 -1.56562e-07 16 3.58172 16 8C16 12.4183 12.4183 16 8 16Z" fill="#0052B5"/>
<path d="M15.4963 5.2C14.3613 2.16267 11.4332 -1.77603e-07 8.00002 -3.27674e-07C4.5668 -4.77745e-07 1.6387 2.16267 0.50371 5.2L15.4963 5.2Z" fill="white"/>
<path d="M0.503663 10.8C1.63865 13.8373 4.56676 16 7.99998 16C11.4332 16 14.3613 13.8373 15.4963 10.8L0.503663 10.8Z" fill="#D90026"/>
</svg>
