<svg width="16" height="16" viewBox="0 0 16 16" fill="none" xmlns="http://www.w3.org/2000/svg">
<path d="M8 16C3.58172 16 -1.93129e-07 12.4183 0 8C1.93129e-07 3.58172 3.58172 -1.93129e-07 8 0C12.4183 1.93129e-07 16 3.58172 16 8C16 12.4183 12.4183 16 8 16Z" fill="#D90026"/>
<path d="M9.18475 4.99931L8.3984 4.91463L8.97909 4.44686L8.83714 3.7952L9.43234 4.17748L10.013 3.70971L9.92834 4.49605L10.4243 4.81462L9.77269 4.95657L9.58881 5.6792L9.18475 4.99931Z" fill="#FFDB44"/>
<path d="M4.4 9.425L2.45 10.4L3.1 8.45L1.8 7.15H3.75L4.4 5.2L5.375 7.15H7L5.7 8.45L6.35 10.4L4.4 9.425Z" fill="#FFDB44"/>
<path d="M9.18475 11.0073L8.3984 11.092L8.97909 11.5598L8.83714 12.2114L9.43234 11.8291L10.013 12.2969L9.92834 11.5106L10.4243 11.192L9.77269 11.0501L9.58881 10.3274L9.18475 11.0073Z" fill="#FFDB44"/>
<path d="M11.0828 7.11411L10.3536 6.80789L11.0439 6.5259L11.0944 5.86088L11.5553 6.39753L12.2456 6.11554L11.9394 6.84474L12.3234 7.29196L11.6584 7.24144L11.2754 7.8812L11.0828 7.11411Z" fill="#FFDB44"/>
<path d="M11.0828 9.34598L10.3536 9.65219L11.0439 9.93419L11.0944 10.5992L11.5553 10.0626L12.2456 10.3445L11.9394 9.61534L12.3234 9.16813L11.6584 9.21865L11.2754 8.57888L11.0828 9.34598Z" fill="#FFDB44"/>
</svg>
