<svg width="20" height="17" viewBox="0 0 20 17" fill="none" xmlns="http://www.w3.org/2000/svg">
<path d="M4.08333 16.5C3.8611 16.5 3.66319 16.434 3.48958 16.3021C3.31596 16.1701 3.20138 16 3.14583 15.7917L0.791659 7.3125C0.736104 7.10417 0.774298 6.91667 0.906242 6.75C1.03819 6.58333 1.21527 6.5 1.43749 6.5H5.60416L9.45833 0.875001C9.52777 0.791668 9.60416 0.725696 9.68749 0.677085C9.77083 0.628473 9.86805 0.604168 9.97916 0.604168C10.0903 0.604168 10.1875 0.628473 10.2708 0.677085C10.3542 0.725696 10.4305 0.791668 10.5 0.875001L14.3333 6.5H18.6042C18.8125 6.5 18.9826 6.58333 19.1146 6.75C19.2465 6.91667 19.2847 7.10417 19.2292 7.3125L16.8542 15.7917C16.7986 16 16.684 16.1701 16.5104 16.3021C16.3368 16.434 16.1389 16.5 15.9167 16.5H4.08333ZM4.29166 15.25H15.7083L17.8125 7.75H2.20833L4.29166 15.25ZM9.99999 12.75C10.3472 12.75 10.6424 12.6285 10.8854 12.3854C11.1285 12.1424 11.25 11.8472 11.25 11.5C11.25 11.1528 11.1285 10.8576 10.8854 10.6146C10.6424 10.3715 10.3472 10.25 9.99999 10.25C9.65277 10.25 9.35763 10.3715 9.11458 10.6146C8.87152 10.8576 8.74999 11.1528 8.74999 11.5C8.74999 11.8472 8.87152 12.1424 9.11458 12.3854C9.35763 12.6285 9.65277 12.75 9.99999 12.75ZM7.12499 6.5H12.8125L9.97916 2.33333L7.12499 6.5Z" fill="black"/>
</svg>
