<svg width="20" height="20" viewBox="0 0 20 20" fill="none" xmlns="http://www.w3.org/2000/svg">
<path d="M2 17.5L5.45244 7.99939L11.7077 14.0834L2 17.5ZM3.87471 15.6547L9.70302 13.6084L5.93503 9.88124L3.87471 15.6547ZM10.8538 10.8313L10.2227 10.2101L14.6775 5.82521C15.0735 5.43544 15.5746 5.23752 16.181 5.23143C16.7873 5.22534 17.2885 5.41717 17.6845 5.80694L18 6.11754L17.3689 6.73873L17.0162 6.3916C16.7811 6.16017 16.5089 6.04141 16.1995 6.03532C15.8902 6.02923 15.6118 6.14799 15.3643 6.3916L10.8538 10.8313ZM7.90255 7.99939L7.27146 7.3782L7.82831 6.83009C8.11292 6.54994 8.24594 6.23021 8.22738 5.87089C8.20882 5.51157 8.07579 5.21011 7.82831 4.9665L7.30858 4.45493L7.93968 3.83374L8.42227 4.30877C8.85537 4.73508 9.06883 5.26797 9.06264 5.90743C9.05646 6.54689 8.83681 7.07978 8.40371 7.50609L7.90255 7.99939ZM9.40603 9.40621L8.77494 8.78502L11.5963 6.00792C11.8314 5.77649 11.9459 5.48112 11.9397 5.1218C11.9335 4.76248 11.8128 4.46711 11.5777 4.23569L10.4455 3.12119L11.0766 2.5L12.2459 3.65104C12.6295 4.0408 12.8275 4.53106 12.8399 5.1218C12.8523 5.71255 12.6605 6.2028 12.2645 6.59257L9.40603 9.40621ZM12.3387 12.3112L11.7077 11.69L12.58 10.8313C13.0131 10.405 13.5329 10.1857 14.1392 10.1736C14.7456 10.1614 15.2653 10.3685 15.6984 10.7948L16.645 11.7266L16.0139 12.3477L15.0487 11.3977C14.7641 11.1175 14.4671 10.9775 14.1578 10.9775C13.8484 10.9775 13.5514 11.1175 13.2668 11.3977L12.3387 12.3112Z" fill="black"/>
</svg>
