<svg width="100" height="100" viewBox="0 0 100 100" fill="none" xmlns="http://www.w3.org/2000/svg">
<g clip-path="url(#clip0_909_4220)">
<path d="M50 0C22.35 0 0 22.35 0 50C0 77.65 22.35 100 50 100C77.65 100 100 77.65 100 50C100 22.35 77.65 0 50 0Z" fill="#C6CDD5"/>
<path d="M16.6553 86.9233C19.7575 78.9044 25.175 72.924 32.6243 68.7297C32.9375 68.5534 33.2086 68.2946 33.532 68.1453C36.2275 66.9011 38.6217 65.56 41.9941 67.0682C47.6733 69.6079 53.6089 69.1859 59.2727 66.4814C60.5102 65.8905 61.6364 66.132 62.7578 66.5894C71.2405 69.9493 78.1639 76.3608 82.1703 84.5668C82.5486 85.3161 82.7872 86.1361 83.0913 86.9233C76.6389 93.2098 68.849 96.9347 60.1458 98.8824C56.3887 99.7277 52.5401 100.096 48.691 99.9784C40.0838 99.7703 31.6835 97.2939 24.3368 92.7989C21.5667 91.1131 18.8816 89.3199 16.6553 86.9233Z" fill="#21262D" fill-opacity="0.5"/>
<path d="M49.8796 63.935C39.6178 63.9241 31.4454 55.9983 31.3773 45.4656C31.405 40.5588 33.3769 35.8636 36.8598 32.4117C40.3426 28.9598 45.0516 27.0335 49.9521 27.0559C54.8526 27.0784 59.5437 29.0478 62.9949 32.5315C66.4461 36.0152 68.375 40.7282 68.3578 45.6351C68.2588 56.043 60.1337 63.9084 49.8796 63.935Z" fill="#21262D" fill-opacity="0.5"/>
</g>
<defs>
<clipPath id="clip0_909_4220">
<rect width="100" height="100" fill="white"/>
</clipPath>
</defs>
</svg>
