<svg width="20" height="20" viewBox="0 0 20 20" fill="none" xmlns="http://www.w3.org/2000/svg">
<path d="M7.18749 12.1458H15.3333L12.6875 8.58333L10.5417 11.3958L9.12499 9.58333L7.18749 12.1458ZM5.41666 15.8333C5.08332 15.8333 4.79166 15.7083 4.54166 15.4583C4.29166 15.2083 4.16666 14.9167 4.16666 14.5833V2.91667C4.16666 2.58333 4.29166 2.29167 4.54166 2.04167C4.79166 1.79167 5.08332 1.66667 5.41666 1.66667H17.0833C17.4167 1.66667 17.7083 1.79167 17.9583 2.04167C18.2083 2.29167 18.3333 2.58333 18.3333 2.91667V14.5833C18.3333 14.9167 18.2083 15.2083 17.9583 15.4583C17.7083 15.7083 17.4167 15.8333 17.0833 15.8333H5.41666ZM5.41666 14.5833H17.0833V2.91667H5.41666V14.5833ZM2.91666 18.3333C2.58332 18.3333 2.29166 18.2083 2.04166 17.9583C1.79166 17.7083 1.66666 17.4167 1.66666 17.0833V4.16667H2.91666V17.0833H15.8333V18.3333H2.91666Z" fill="black"/>
</svg>
