<svg width="17" height="18" viewBox="0 0 17 18"  xmlns="http://www.w3.org/2000/svg">
<path d="M4.97475 17.3125C4.56103 17.3125 4.20833 17.1652 3.91667 16.8706C3.625 16.576 3.47917 16.2218 3.47917 15.8081C3.47917 15.3944 3.62647 15.0417 3.92108 14.75C4.21571 14.4583 4.56987 14.3125 4.98358 14.3125C5.39731 14.3125 5.75 14.4598 6.04167 14.7544C6.33333 15.049 6.47917 15.4032 6.47917 15.8169C6.47917 16.2306 6.33186 16.5833 6.03725 16.875C5.74262 17.1667 5.38846 17.3125 4.97475 17.3125ZM13.3081 17.3125C12.8944 17.3125 12.5417 17.1652 12.25 16.8706C11.9583 16.576 11.8125 16.2218 11.8125 15.8081C11.8125 15.3944 11.9598 15.0417 12.2544 14.75C12.549 14.4583 12.9032 14.3125 13.3169 14.3125C13.7306 14.3125 14.0833 14.4598 14.375 14.7544C14.6667 15.049 14.8125 15.4032 14.8125 15.8169C14.8125 16.2306 14.6652 16.5833 14.3706 16.875C14.076 17.1667 13.7218 17.3125 13.3081 17.3125ZM3.89583 3.5625L6.1875 8.3125H12.1875L14.7917 3.5625H3.89583ZM3.27083 2.3125H15.5432C15.8622 2.3125 16.1048 2.45833 16.2712 2.75C16.4376 3.04167 16.4375 3.33333 16.2708 3.625L13.4583 8.6875C13.3056 8.95139 13.1072 9.1632 12.8634 9.32292C12.6195 9.48264 12.3525 9.5625 12.0625 9.5625H5.75L4.58333 11.7292H14.8125V12.9792H4.77083C4.1875 12.9792 3.76736 12.7847 3.51042 12.3958C3.25347 12.0069 3.25694 11.5694 3.52083 11.0833L4.85417 8.625L1.6875 1.91667H0.0625V0.666668H2.5L3.27083 2.3125Z" />
</svg>
