<svg width="16" height="16" viewBox="0 0 16 16" fill="none" xmlns="http://www.w3.org/2000/svg">
<path d="M8 16C6.89333 16 5.85333 15.79 4.88 15.37C3.90667 14.95 3.06 14.38 2.34 13.66C1.62 12.94 1.05 12.0933 0.63 11.12C0.21 10.1467 0 9.10667 0 8C0 6.89333 0.21 5.85333 0.63 4.88C1.05 3.90667 1.62 3.06 2.34 2.34C3.06 1.62 3.90667 1.05 4.88 0.63C5.85333 0.21 6.89333 0 8 0C9.10667 0 10.1467 0.21 11.12 0.63C12.0933 1.05 12.94 1.62 13.66 2.34C14.38 3.06 14.95 3.90667 15.37 4.88C15.79 5.85333 16 6.89333 16 8V9.06C16 9.80667 15.7367 10.4367 15.21 10.95C14.6833 11.4633 14.04 11.72 13.28 11.72C12.8 11.72 12.3467 11.6033 11.92 11.37C11.4933 11.1367 11.1667 10.8067 10.94 10.38C10.5933 10.8333 10.16 11.17 9.64 11.39C9.12 11.61 8.57333 11.72 8 11.72C6.96 11.72 6.07667 11.36 5.35 10.64C4.62333 9.92 4.26 9.04 4.26 8C4.26 6.96 4.62333 6.07333 5.35 5.34C6.07667 4.60667 6.96 4.24 8 4.24C9.04 4.24 9.92333 4.60667 10.65 5.34C11.3767 6.07333 11.74 6.96 11.74 8V9.06C11.74 9.47333 11.89 9.82 12.19 10.1C12.49 10.38 12.8533 10.52 13.28 10.52C13.6933 10.52 14.05 10.38 14.35 10.1C14.65 9.82 14.8 9.47333 14.8 9.06V8C14.8 6.10667 14.14 4.5 12.82 3.18C11.5 1.86 9.89333 1.2 8 1.2C6.10667 1.2 4.5 1.86 3.18 3.18C1.86 4.5 1.2 6.10667 1.2 8C1.2 9.89333 1.86 11.5 3.18 12.82C4.5 14.14 6.10667 14.8 8 14.8H12.28V16H8ZM8 10.52C8.70667 10.52 9.30667 10.2767 9.8 9.79C10.2933 9.30333 10.54 8.70667 10.54 8C10.54 7.28 10.2933 6.67333 9.8 6.18C9.30667 5.68667 8.70667 5.44 8 5.44C7.29333 5.44 6.69333 5.68667 6.2 6.18C5.70667 6.67333 5.46 7.28 5.46 8C5.46 8.70667 5.70667 9.30333 6.2 9.79C6.69333 10.2767 7.29333 10.52 8 10.52Z" fill="white"/>
</svg>
