<?xml version="1.0" standalone="no"?>
<!DOCTYPE svg PUBLIC "-//W3C//DTD SVG 20010904//EN"
 "http://www.w3.org/TR/2001/REC-SVG-20010904/DTD/svg10.dtd">
<svg version="1.0" xmlns="http://www.w3.org/2000/svg"
 width="512.000000pt" height="512.000000pt" viewBox="0 0 512.000000 512.000000"
 preserveAspectRatio="xMidYMid meet">
<metadata>
Created by potrace 1.14, written by Peter Selinger 2001-2017
</metadata>
<g transform="translate(0.000000,512.000000) scale(0.100000,-0.100000)"
fill="#000000" stroke="none">
<path d="M4018 4285 c-2 -2 -15 -6 -28 -8 -39 -8 -63 -18 -96 -43 -17 -13 -34
-20 -38 -17 -3 4 -6 1 -6 -6 0 -6 -6 -11 -12 -10 -15 3 -61 -14 -99 -36 -14
-8 -29 -12 -33 -8 -3 3 -6 1 -6 -5 0 -7 -6 -12 -13 -12 -7 0 -23 -9 -35 -20
-12 -11 -25 -20 -30 -20 -20 0 -159 -149 -202 -215 -50 -79 -73 -99 -111 -100
-24 0 -42 -15 -91 -74 -18 -21 -51 -91 -43 -91 3 0 0 -11 -5 -25 -10 -28 -24
-110 -22 -138 1 -22 30 -46 55 -47 28 0 20 -16 -15 -31 -43 -17 -125 -67 -163
-99 -54 -45 -146 -142 -172 -182 -15 -22 -44 -48 -65 -59 -41 -21 -54 -49 -44
-102 3 -17 -1 -53 -8 -79 -8 -25 -12 -49 -9 -52 8 -8 2 -9 -105 -10 -77 -2
-95 1 -102 14 -5 9 -5 22 -1 29 5 7 7 26 5 42 -2 16 -6 42 -8 59 -2 16 -1 32
3 35 3 3 4 21 3 39 -3 32 -3 32 41 32 51 -1 76 19 87 68 6 28 3 39 -17 65 -14
17 -28 29 -32 27 -4 -3 -13 -1 -21 4 -7 4 -24 4 -37 -1 -20 -7 -23 -6 -23 15
0 19 4 23 20 19 14 -4 29 5 50 27 24 26 29 38 25 67 -9 70 -64 89 -268 91
-176 1 -160 9 -159 -80 1 -40 -2 -46 -19 -45 -10 1 -19 6 -19 12 0 6 -17 19
-37 29 -21 10 -63 31 -93 47 -57 29 -163 66 -215 75 -128 20 -225 20 -355 0
-84 -13 -258 -82 -294 -117 -19 -17 -34 -9 -31 16 1 14 -1 25 -6 25 -4 0 -6
10 -3 23 10 46 11 107 2 113 -5 3 -14 1 -21 -4 -14 -11 -98 -32 -148 -37 -19
-2 -37 -4 -41 -4 -4 -1 -9 -9 -12 -19 -10 -31 -45 -62 -70 -62 -27 0 -45 -18
-51 -51 -3 -13 -12 -39 -22 -59 -9 -19 -16 -47 -15 -62 3 -42 -24 -53 -72 -30
-15 7 -25 9 -22 3 10 -15 -134 45 -145 61 -3 5 -26 -1 -52 -12 -36 -16 -51
-18 -66 -10 -11 5 -27 10 -36 10 -16 0 -77 -38 -83 -53 -2 -4 -8 -5 -13 -1 -5
3 -9 0 -9 -5 0 -6 -7 -11 -15 -11 -8 0 -15 -4 -15 -8 0 -4 -10 -8 -22 -9 -12
-1 -27 -8 -35 -16 -11 -11 -7 -18 28 -46 22 -18 56 -55 75 -82 32 -43 39 -48
74 -47 29 0 48 -7 72 -27 28 -23 37 -26 72 -20 23 4 52 8 66 8 14 0 27 4 30 8
3 4 14 9 24 11 15 2 20 -4 22 -27 2 -16 4 -36 5 -43 1 -7 17 -25 34 -41 25
-22 32 -36 32 -67 1 -67 2 -72 23 -77 18 -5 20 -14 22 -109 1 -95 2 -114 8
-128 1 -3 3 -14 5 -25 13 -92 60 -213 119 -304 25 -40 27 -46 14 -70 -7 -14
-16 -29 -21 -32 -9 -7 12 -69 30 -88 20 -19 84 -21 105 -3 16 14 23 11 79 -33
58 -45 229 -142 229 -129 0 4 7 0 17 -7 9 -8 19 -13 22 -13 3 1 11 0 16 -1 56
-16 107 -26 140 -29 22 -3 42 -5 45 -6 11 -5 180 -5 180 0 0 3 20 5 45 5 25 0
45 3 45 6 0 4 15 10 33 13 17 3 41 8 52 10 32 7 129 50 143 64 7 6 18 12 23
12 5 0 33 16 62 35 28 19 55 35 58 35 3 0 5 -30 4 -67 -1 -38 0 -72 2 -78 3
-10 318 -13 328 -3 3 2 6 16 7 31 2 19 6 24 18 18 8 -4 21 -6 28 -5 6 1 19 2
27 3 8 0 23 10 33 21 56 66 9 154 -77 144 -26 -3 -31 0 -31 17 0 14 6 19 18
17 22 -3 55 20 71 50 23 44 -8 104 -61 117 -33 8 -38 40 -8 48 20 5 40 43 40
78 0 10 -14 33 -30 51 -24 24 -29 38 -26 64 5 53 18 61 95 60 74 -1 83 -5 88
-36 10 -63 26 -123 49 -185 12 -33 13 -45 3 -39 -16 10 -65 -15 -78 -40 -18
-33 -20 -58 -5 -87 25 -51 104 -55 144 -8 14 16 20 12 80 -59 36 -43 95 -98
130 -124 36 -26 71 -52 77 -58 7 -6 14 -10 15 -10 2 1 26 -9 53 -21 28 -13 55
-24 60 -26 6 -1 46 -13 90 -25 44 -13 92 -23 108 -23 15 1 27 -2 27 -5 0 -6
240 -7 240 0 0 3 26 6 58 7 31 1 89 12 127 23 39 11 78 22 88 25 24 5 142 70
179 97 55 42 198 188 198 204 0 3 -24 16 -52 29 -29 12 -100 45 -158 73 -147
69 -142 68 -181 33 -67 -62 -204 -120 -294 -125 -28 -1 -57 -6 -63 -10 -6 -3
-13 -3 -16 2 -2 4 -30 8 -60 7 -31 0 -56 3 -56 7 0 3 -8 5 -17 4 -10 -2 -25 0
-33 4 -8 4 -40 19 -70 32 -101 47 -177 131 -219 242 -38 102 -112 91 647 91
367 -1 672 0 678 2 12 4 11 178 -1 207 -6 15 -5 17 5 11 10 -6 11 -4 4 6 -4 8
-10 23 -11 34 -12 81 -24 135 -32 135 -3 0 -7 10 -7 23 -2 21 -60 156 -73 167
-3 3 -11 15 -18 26 -11 20 -8 23 32 38 55 21 70 53 82 166 8 82 0 158 -18 170
-12 8 -19 60 -13 87 10 38 31 26 44 -24 7 -27 14 -52 16 -58 1 -5 18 -47 38
-92 l35 -82 -20 -25 c-40 -50 -35 -145 11 -199 50 -61 163 -65 225 -10 30 27
55 69 58 101 2 15 7 33 11 40 4 7 2 12 -4 12 -6 0 -8 4 -5 10 14 23 -49 95
-93 106 l-23 6 6 147 c6 153 7 170 16 186 5 10 3 53 -5 135 -17 163 -13 150
-70 211 -32 34 -64 58 -69 52 -3 -2 -19 15 -35 39 -34 49 -122 137 -122 123 0
-6 -3 -6 -8 0 -7 10 -85 40 -132 51 -14 3 -36 8 -50 11 -31 7 -206 14 -212 8z
m-2278 -1180 c14 -4 32 -8 40 -9 23 -3 58 -25 40 -26 -11 0 -11 -3 -2 -12 9
-9 15 -9 23 -1 11 11 40 2 59 -17 3 -3 17 -11 32 -19 15 -8 25 -18 22 -23 -3
-4 0 -8 5 -8 40 0 155 -174 178 -268 18 -69 14 -209 -7 -264 -10 -26 -15 -49
-12 -52 3 -4 0 -6 -6 -6 -7 0 -12 -8 -12 -17 -1 -36 -95 -150 -172 -208 -32
-24 -133 -69 -181 -80 -50 -11 -198 -12 -242 -1 -156 38 -315 170 -362 301 -6
17 -15 39 -19 50 -19 49 -29 241 -13 250 5 4 6 11 3 17 -7 11 -3 21 44 119 33
68 102 148 162 190 63 43 110 63 95 39 -7 -12 -3 -12 20 -4 13 5 14 9 4 15
-10 6 -9 10 6 14 11 4 27 9 35 13 8 3 29 7 45 9 17 3 31 6 33 7 4 5 157 -3
182 -9z m1995 -20 c78 -21 148 -64 211 -130 47 -50 102 -150 86 -158 -18 -9
-897 -1 -896 8 2 19 28 75 36 75 4 0 8 7 8 15 0 26 113 129 170 155 30 14 57
27 60 30 6 6 33 11 73 12 15 1 27 5 27 8 0 13 163 2 225 -15z"/>
<path d="M1620 3094 c0 -8 5 -12 10 -9 6 3 10 10 10 16 0 5 -4 9 -10 9 -5 0
-10 -7 -10 -16z"/>
<path d="M1620 3055 c0 -20 17 -28 23 -11 3 8 -1 17 -9 20 -8 3 -14 -1 -14 -9z"/>
<path d="M1416 3014 c-6 -16 2 -18 22 -5 11 7 11 9 -1 14 -9 3 -18 -1 -21 -9z"/>
<path d="M1822 3021 c-11 -7 -11 -9 2 -14 10 -4 16 -1 16 8 0 17 -1 17 -18 6z"/>
<path d="M1620 3006 c0 -9 5 -16 10 -16 6 0 10 4 10 9 0 6 -4 13 -10 16 -5 3
-10 -1 -10 -9z"/>
<path d="M1426 2981 c-4 -7 -5 -15 -2 -18 9 -9 19 4 14 18 -4 11 -6 11 -12 0z"/>
<path d="M1824 2975 c3 -22 13 -27 19 -11 3 8 0 17 -8 19 -7 3 -12 0 -11 -8z"/>
<path d="M1620 2954 c0 -14 3 -14 15 -4 8 7 15 14 15 16 0 2 -7 4 -15 4 -8 0
-15 -7 -15 -16z"/>
<path d="M1407 2922 c-13 -3 -17 -10 -14 -23 4 -15 -5 -26 -35 -45 -130 -82
-71 -270 84 -263 27 2 53 -2 56 -7 23 -34 40 -51 64 -63 61 -32 155 -8 192 48
16 23 25 28 49 24 130 -20 215 109 143 217 -14 22 -37 42 -51 46 -14 3 -26 11
-26 18 -1 6 -2 18 -3 26 -1 10 -14 16 -37 18 -30 2 -36 0 -36 -15 0 -35 -3
-43 -18 -43 -8 0 -26 -12 -42 -27 -42 -43 -70 -37 -64 13 1 7 -9 14 -22 16
-26 5 -59 -4 -58 -15 5 -49 -20 -59 -57 -22 -15 15 -37 31 -50 36 -13 5 -22
15 -21 21 4 35 -14 49 -54 40z"/>
<path d="M1620 2911 c0 -6 5 -13 10 -16 6 -3 10 1 10 9 0 9 -4 16 -10 16 -5 0
-10 -4 -10 -9z"/>
<path d="M2909 4103 c-21 -5 -50 -58 -47 -85 4 -28 32 -70 41 -61 4 3 7 2 7
-4 0 -5 15 -10 34 -11 40 -2 97 45 91 75 -2 10 -4 24 -4 31 -1 7 -12 24 -26
37 -23 24 -54 30 -96 18z"/>
<path d="M2489 3857 c-35 -27 -42 -60 -24 -116 6 -20 45 -41 76 -41 77 0 112
103 51 150 -28 22 -79 26 -103 7z"/>
<path d="M2819 3673 c-57 -29 -71 -94 -29 -138 53 -57 152 -14 145 62 -4 38
-29 73 -55 73 -9 0 -20 4 -25 8 -6 5 -22 3 -36 -5z"/>
<path d="M548 2314 c-42 -22 -49 -44 -39 -116 2 -17 55 -41 87 -40 74 3 107
95 51 145 -11 9 -23 17 -26 18 -3 0 -15 2 -26 4 -11 2 -32 -3 -47 -11z"/>
<path d="M562 1922 c-17 -15 -32 -36 -33 -47 -9 -89 93 -133 150 -64 26 32 36
59 20 59 -5 0 -9 8 -9 18 0 25 -29 50 -66 56 -23 4 -37 -1 -62 -22z"/>
</g>
</svg>
