<svg width="20" height="16" viewBox="0 0 20 16"  xmlns="http://www.w3.org/2000/svg">
<path d="M9.16665 15.4792L7.10415 13.5833C5.89581 12.4722 4.89234 11.5208 4.09373 10.7292C3.29512 9.9375 2.65276 9.22222 2.16665 8.58333C1.68054 7.94444 1.33679 7.34375 1.1354 6.78125C0.934007 6.21875 0.833313 5.61806 0.833313 4.97917C0.833313 3.72917 1.25345 2.67014 2.09373 1.80208C2.93401 0.934028 3.9722 0.5 5.20831 0.5C5.99998 0.5 6.73262 0.684028 7.40623 1.05208C8.07984 1.42014 8.66665 1.95833 9.16665 2.66667C9.74998 1.91667 10.368 1.36806 11.0208 1.02083C11.6736 0.673611 12.375 0.5 13.125 0.5C14.2441 0.5 15.1836 0.881944 15.9435 1.64583C16.7034 2.40972 17.1666 3.33333 17.3333 4.41667H16.1041C15.9791 3.65278 15.6562 3.01736 15.1354 2.51042C14.6146 2.00347 13.9444 1.75 13.125 1.75C12.4166 1.75 11.7569 1.96528 11.1458 2.39583C10.5347 2.82639 10.0416 3.4375 9.66665 4.22917H8.64581C8.2847 3.45139 7.79859 2.84375 7.18748 2.40625C6.57637 1.96875 5.91665 1.75 5.20831 1.75C4.29165 1.75 3.54165 2.05903 2.95831 2.67708C2.37498 3.29514 2.08331 4.0625 2.08331 4.97917C2.08331 5.52083 2.19095 6.04861 2.40623 6.5625C2.62151 7.07639 2.99573 7.66019 3.5289 8.3139C4.06206 8.96762 4.78776 9.73151 5.70598 10.6056C6.6242 11.4796 7.77776 12.5556 9.16665 13.8333C9.61109 13.4306 10.0312 13.0556 10.4271 12.7083C10.8229 12.3611 11.2153 12.0208 11.6041 11.6875L11.7423 11.8224L12.0416 12.1146L12.341 12.4068L12.4791 12.5417C12.1041 12.875 11.7153 13.2153 11.3125 13.5625C10.9097 13.9097 10.4791 14.2917 10.0208 14.7083L9.16665 15.4792ZM15.2083 12.1667V9.45833H12.5V8.20833H15.2083V5.5H16.4583V8.20833H19.1666V9.45833H16.4583V12.1667H15.2083Z" />
</svg>
