<?xml version="1.0" standalone="no"?>
<!DOCTYPE svg PUBLIC "-//W3C//DTD SVG 20010904//EN"
 "http://www.w3.org/TR/2001/REC-SVG-20010904/DTD/svg10.dtd">
<svg version="1.0" xmlns="http://www.w3.org/2000/svg"
 width="512.000000pt" height="512.000000pt" viewBox="0 0 512.000000 512.000000"
 preserveAspectRatio="xMidYMid meet">
<metadata>
Created by potrace 1.14, written by Peter Selinger 2001-2017
</metadata>
<g transform="translate(0.000000,512.000000) scale(0.100000,-0.100000)"
fill="#000000" stroke="none">
<path d="M2900 4090 c-37 -35 -40 -78 -7 -116 62 -71 183 3 141 87 -30 60 -87
73 -134 29z"/>
<path d="M2513 3865 c-67 -28 -74 -118 -12 -151 53 -27 115 0 125 55 13 70
-49 123 -113 96z"/>
<path d="M2799 3651 c-31 -31 -36 -59 -17 -94 26 -50 86 -62 131 -27 33 26 41
63 22 100 -30 58 -90 67 -136 21z"/>
<path d="M1590 3483 c-480 -25 -857 -403 -864 -863 0 -58 2 -131 6 -163 13
-101 75 -261 137 -352 20 -29 20 -30 1 -60 -25 -40 -19 -83 14 -112 31 -27 59
-29 99 -8 27 14 30 13 79 -25 237 -188 562 -244 852 -149 85 28 248 115 268
144 4 5 8 -27 8 -71 0 -57 4 -83 13 -86 10 -4 296 -3 320 1 5 0 7 11 5 24 -3
19 2 22 32 23 88 1 130 78 77 140 -19 21 -33 27 -68 28 -24 1 -43 4 -41 9 1 4
2 12 2 17 0 6 9 10 19 10 34 0 74 43 73 78 -1 45 -17 69 -57 82 -42 14 -44 33
-8 64 39 34 38 87 -4 126 -27 26 -30 33 -23 63 12 55 15 57 101 57 68 0 79 -2
80 -17 1 -39 39 -186 50 -197 11 -12 12 -46 2 -47 -48 -5 -78 -27 -88 -66 -21
-87 97 -143 153 -73 l18 22 29 -42 c40 -58 161 -168 228 -209 149 -89 299
-126 507 -126 284 0 480 71 650 236 67 64 114 125 103 132 -4 3 -53 25 -108
50 -55 25 -130 59 -167 76 -36 17 -70 31 -75 31 -4 0 -20 -11 -35 -25 -37 -34
-144 -92 -209 -112 -77 -24 -265 -24 -339 1 -79 26 -135 61 -192 118 -53 53
-103 147 -113 210 l-6 38 668 0 c367 -1 675 0 683 0 13 0 15 16 14 99 -6 261
-87 477 -236 631 -105 108 -200 169 -328 213 -131 44 -177 51 -340 51 -167 -1
-253 -17 -369 -70 -135 -61 -272 -174 -349 -287 -20 -28 -47 -53 -67 -61 -38
-16 -50 -46 -42 -99 3 -17 -2 -58 -11 -89 l-17 -58 -97 0 c-71 0 -98 3 -99 13
-1 15 -1 230 0 237 1 3 18 4 39 2 50 -4 82 22 89 74 4 34 1 43 -23 67 -23 23
-35 28 -68 25 -30 -2 -40 1 -42 14 -1 11 8 18 31 22 56 11 84 76 54 125 -26
44 -77 55 -261 56 l-158 1 0 -68 0 -68 -51 35 c-119 81 -280 140 -419 151 -41
4 -77 7 -80 8 -3 1 -25 0 -50 -1z m190 -393 c279 -83 436 -379 349 -654 -47
-146 -156 -264 -298 -321 -72 -30 -97 -35 -187 -40 -256 -14 -494 175 -538
427 -26 149 5 281 93 398 135 179 366 255 581 190z m1937 0 c123 -21 262 -128
315 -240 l25 -55 -455 -3 c-250 -1 -457 0 -460 2 -5 5 50 107 71 133 78 95
192 158 312 170 28 3 51 7 53 8 4 3 78 -5 139 -15z"/>
<path d="M554 2313 c-31 -6 -54 -35 -59 -72 -5 -45 35 -91 80 -91 47 0 64 8
80 41 22 42 18 67 -14 100 -28 28 -41 31 -87 22z"/>
<path d="M583 1933 c-13 -2 -32 -16 -43 -30 -58 -74 30 -172 112 -125 57 33
54 118 -6 146 -19 9 -36 15 -38 15 -1 -1 -13 -4 -25 -6z"/>
</g>
</svg>
