<svg width="20" height="20" viewBox="0 0 20 20"  xmlns="http://www.w3.org/2000/svg">
<path d="M4.58334 18.3333C4.23959 18.3333 3.94532 18.2109 3.70053 17.9661C3.45574 17.7214 3.33334 17.4271 3.33334 17.0833V2.91667C3.33334 2.57292 3.45574 2.27865 3.70053 2.03386C3.94532 1.78906 4.23959 1.66667 4.58334 1.66667H15.4167C15.7604 1.66667 16.0547 1.78906 16.2995 2.03386C16.5443 2.27865 16.6667 2.57292 16.6667 2.91667V17.0833C16.6667 17.4271 16.5443 17.7214 16.2995 17.9661C16.0547 18.2109 15.7604 18.3333 15.4167 18.3333H4.58334ZM4.58334 17.0833H15.4167V2.91667H4.58334V17.0833ZM10 15.8542C11.1182 15.8542 12.0714 15.4601 12.8595 14.672C13.6476 13.8839 14.0417 12.9307 14.0417 11.8125C14.0417 10.6943 13.6476 9.74115 12.8595 8.95302C12.0714 8.1649 11.1182 7.77083 10 7.77083C8.88182 7.77083 7.92866 8.1649 7.14053 8.95302C6.35241 9.74115 5.95834 10.6943 5.95834 11.8125C5.95834 12.9307 6.35241 13.8839 7.14053 14.672C7.92866 15.4601 8.88182 15.8542 10 15.8542ZM10 14.1042C9.685 14.1042 9.37907 14.0486 9.08224 13.9375C8.78539 13.8264 8.52187 13.6597 8.29168 13.4375L11.6042 10.125C11.8403 10.3333 12.0139 10.5872 12.125 10.8867C12.2361 11.1861 12.2917 11.4947 12.2917 11.8125C12.2917 12.4491 12.0689 12.9902 11.6233 13.4358C11.1777 13.8814 10.6366 14.1042 10 14.1042ZM6.33699 5.25C6.51511 5.25 6.6632 5.18976 6.78126 5.06927C6.89932 4.94877 6.95834 4.79947 6.95834 4.62136C6.95834 4.44323 6.8981 4.29514 6.77761 4.17708C6.65711 4.05903 6.50781 4 6.3297 4C6.15157 4 6.00348 4.06024 5.88543 4.18073C5.76737 4.30123 5.70834 4.45054 5.70834 4.62865C5.70834 4.80677 5.76859 4.95486 5.88907 5.07292C6.00957 5.19097 6.15888 5.25 6.33699 5.25ZM9.12866 5.25C9.30678 5.25 9.45487 5.18976 9.57293 5.06927C9.69098 4.94877 9.75001 4.79947 9.75001 4.62136C9.75001 4.44323 9.68977 4.29514 9.56928 4.17708C9.44878 4.05903 9.29948 4 9.12136 4C8.94324 4 8.79515 4.06024 8.67709 4.18073C8.55904 4.30123 8.50001 4.45054 8.50001 4.62865C8.50001 4.80677 8.56025 4.95486 8.68074 5.07292C8.80124 5.19097 8.95054 5.25 9.12866 5.25Z" />
</svg>
