<?xml version="1.0" encoding="UTF-8"?><svg id="Calque_2" xmlns="http://www.w3.org/2000/svg" viewBox="0 0 519.36 367.48"><defs><style>.cls-1{fill:#f8b10d;}.cls-2{fill:#f68812;}.cls-3{fill:#ec0e61;}.cls-4{fill:#eb1e24;}.cls-5{fill:#ee1c95;}.cls-6{fill:#dae60d;}.cls-7{fill:#4181cb;}.cls-8{fill:#ffffff;}.cls-9{fill:#4382c9;}.cls-10{fill:#43c0cc;}.cls-11{fill:#594ea7;}</style></defs><g id="Calque_1-2"><g><path class="cls-7" d="M286.72,224.45c-4.13-9.23-6.78-18.88-7.98-28.91-.16-1.33-.6-1.73-1.9-1.72-5.75,.05-11.49,0-17.24,0,.42-1.89,.16-3.72-.41-5.56-.45-1.47-1.58-2.52-2.17-3.89,.25-3.16,.37-6.32,.23-9.5-.29-6.58-.26-13.17-.04-19.75,6.77-.01,13.54,0,20.32-.04,3.47-.01,2.74,.34,3.58-2.73,1.05-3.83,2-7.7,3.63-11.35,.51,.5,.99,1.04,1.53,1.5,4.35,3.75,11.2,3.16,14.76-1.26,3.55-4.41,2.79-10.74-1.68-14.26-1.97-1.55-4.29-2.01-6.68-2.3,15.81-24.74,37.74-40.6,66.84-46.06,10.51-1.97,21.1-2.26,31.75-1.47,11.4,.85,22.51,3,33.06,7.41,28.37,11.87,47.29,32.54,56.8,61.77,2.78,8.54,4.21,17.35,4.96,26.29,.54,6.47,.38,12.93,.33,19.4-.01,1.76-.06,1.77-1.92,1.8-.64,.01-1.28,0-1.92,0-51.1,0-102.19,0-153.29,0-4.02,0-3.24-.03-2.54,3.2,4.63,21.65,20.33,36.9,42.22,40.93,16.74,3.08,32.77,1.1,47.82-7.2,4.64-2.56,8.92-5.66,12.75-9.3,1.31-1.24,2.28-1.17,3.74-.49,9.26,4.34,18.55,8.6,27.84,12.89,3.55,1.64,7.11,3.29,10.66,4.92,.44,.2,.89,.36,1.22,.89-1.49,2.41-3.34,4.61-5.17,6.81-15.11,18.16-34.33,29.31-57.54,33.64-10.89,2.03-21.88,2.74-32.93,2.26-16.81-.72-32.91-4.33-47.83-12.39-13.9-7.51-25.22-17.91-34.33-30.77-.28-.39-.49-.82-.74-1.23,.02-1.34,.02-2.69,.07-4.03,.11-2.72-1.09-4.9-2.88-6.78-1.33-1.41-3.13-2.1-4.92-2.75Zm149.25-69.5c.22-1.16-.31-2.02-.64-2.89-5.33-13.94-15.24-23.53-28.83-29.15-15.8-6.52-31.83-6.1-47.66,.11-7.37,2.89-13.92,7.15-19.06,13.33-4.53,5.45-8.03,11.52-11.01,17.92-.11,.24-.04,.45,.11,.68h107.09Z"/><path class="cls-1" d="M257.21,155.13c-.22,6.58-.24,13.17,.04,19.75,.14,3.18,.02,6.34-.23,9.5-.46-.31-.93-.62-1.38-.94-2.72-1.88-5.65-2.47-8.87-1.6-4.81,1.3-7.97,5.91-7.42,10.9,.54,4.87,4.55,8.56,9.48,8.88,3.16,.21,5.76-.97,8.16-2.83,.01,2.29,.03,4.58,.04,6.88-1.09-.26-2.19-.39-3.32-.37-5.01,.08-9.27,3.75-9.98,8.64-.71,4.88,2.39,9.57,7.2,11.06,2.06,.64,4.09,.41,6.15,.08,0,1.25,.01,2.5,.02,3.75-.53,.15-1.06,.31-1.6,.46-4.58,1.25-7.63,5.33-7.52,10.07,.1,4.39,3.57,9,9.13,9.73,0,1.69,.01,3.39,.02,5.08-4.87,3.22-5.92,8.94-3.6,13.33,.88,1.67,2.27,2.81,3.62,4.02-.02,1.91-.07,3.83-.06,5.74,0,.89-.31,1.36-1.25,1.3-.32-.02-.64,0-.96,0-11.5,0-23,0-34.5,0-.63,0-1.26-.12-1.89-.18,.45-.83,.94-1.64,1.35-2.49,1.6-3.29,.75-8.56-2.04-10.62v-5.64c-1.91,.6-2.95,2.15-4.52,2.8-5.78-1.94-11.99,1.85-12.77,7.79-2.08,1.27-4.29,2.28-6.57,3.13-.38-1.33-1.12-2.45-2.05-3.44-3.21-3.43-8.32-4.28-12.46-2.07-3.61,1.93-6.47,6.49-4.91,11.76-2.02,.54-4.05,1.06-6.16,1.08-.29-4.48-2.65-7.54-6.81-8.87-3.84-1.23-7.52-.55-10.57,2.39-2.22,2.14-2.99,4.8-2.85,7.8-2.3,.13-4.58-.04-6.84-.45-2.31-5.39-10.63-8.14-16.21-2.81-5.39-1.13-10.56-2.93-15.56-5.22,.35-.53,.72-1.05,1.03-1.6,2.93-5.14,.86-11.7-4.52-14.12-5.72-2.58-12.28,.26-14.15,6.1-4.55-2.77-8.61-6.17-12.53-9.75,.34-.63,.7-1.25,1.02-1.88,3.31-6.66-1.36-14.28-8.81-14.46-2.06-.05-3.92,.48-5.75,1.29-1.4-1.96-2.89-3.86-4.02-6.01,2.42,.9,4.89,1.46,7.47,.85,4.88-1.15,8.22-5.67,7.83-10.58-.38-4.89-4.25-8.73-9.38-9.29-4.69-.51-9.43,2.76-10.71,7.39-.19,.69-.34,1.39-.51,2.09-2.52-4.28-4.18-8.93-5.72-13.62-2.98-9.07-4.61-18.37-4.97-27.92-.25-6.72,.17-13.38,1.14-20.02,.06-.39,.21-.76,.32-1.14,.61,.38,1.18,.82,1.82,1.13,3.87,1.84,7.63,1.54,11.01-1.06,3.23-2.48,4.53-5.88,3.67-9.92-.88-4.13-3.5-6.64-7.55-7.75-1.42-.39-2.84-.24-4.27-.22,.39-1.69,1.09-3.27,1.82-4.83,4.36-1.75,6.8-6.61,5.56-11.1,3.16-5.9,7.01-11.31,11.51-16.27,5.44,1,11.35-4.88,10.45-10.5,1.76-1.86,3.77-3.42,5.9-4.84-.72,6.61,5.37,11.88,11.96,10.61,5.27-1.02,7.77-4.82,8.2-8.46,.63-5.4-2.42-9.53-6.71-10.79,6.42-3.8,13.34-6.44,20.46-8.56,11.58-3.45,23.44-4.84,35.5-4.26,3.81,.18,7.65,.31,11.37,1.32-.3,.47-.6,.94-.9,1.41-2.38,3.67-2.22,7.84,.17,11.46,1.81,2.74,6.86,4.98,10.58,3.98,4.18-1.12,7.05-4.11,7.87-8.36,.28-1.48-.16-2.84-.13-4.26,2.52,.56,4.86,1.58,7.2,2.63,1.56,4.07,6.35,6.39,10.87,5.26,1.98,1.18,3.98,2.34,5.94,3.55,.42,.26,1.11,.37,.99,1.14-1.16-.23-2.32-.53-3.5-.67-4.27-.53-8.53,1.89-10.35,5.82-1.84,3.98-.89,8.6,2.4,11.58,3.73,3.38,9.43,3.54,13.41,.38,3.91-3.12,4.86-8.45,2.35-12.94-.29-.52-1.22-.93-.53-1.77,1.21,.24,1.88,1.41,2.98,1.8,.69-.4,.4-1.02,.4-1.51,.03-3.97,.01-7.95,.02-11.92,0-2.43-.21-2.31,2.33-2.31,.4,0,.79,.05,1.19,.07,2.84,3.27,10.26,3.24,13.08,0,7.08-.02,14.16-.03,21.24-.09,1.1,0,1.68,.26,1.54,1.44-.69,.18-1.4,.35-2.08,.55-6.15,1.83-8.94,9.35-5.53,14.79,1.79,2.84,4.43,4.27,7.61,4.9,0,1.59-.01,3.18-.02,4.78-.47,.86-1.22,1.47-1.93,2.1-3.74,3.38-3.73,10.07-.04,13.44,.7,.64,1.3,1.39,1.94,2.08,0,9.29,.01,18.58,.03,27.87,0,.87,.08,1.74,.12,2.61Zm-98.97,83.74c3.48-.67,6.97-1.34,10.45-2.01,1.3,.59,2.36,1.58,3.76,2.04,5.23,1.7,12.28-1.45,13.17-7.91,.1-.7,.51-1.35,.41-2.09l5.32-3.89c.14,.54,.32,1.07,.43,1.61,1.49,7.15,9.3,9.98,15.14,6.64,4.18-2.39,5.87-7.55,4.61-11.47-1.42-4.45-4.91-6.94-10.05-7.34,1.41-2.21,2.9-4.37,4.21-6.63,4.74-8.2,7.18-17.09,7.88-26.5,2.18,.81,4.42,1.22,6.77,1.02,2.87-.24,5.23-1.45,6.91-3.75,3.41-4.68,2.41-10.74-2.27-14.16-3.94-2.88-10.2-2.22-12.58,1.13-.67-2.39-1.34-4.78-2.01-7.17,1.6-.08,3.1,.56,4.73,.49,4.53-.18,8.36-3.19,9.57-7.68,1.13-4.22-.81-8.74-4.76-11.05-3.92-2.29-8.7-1.76-12,1.24-1.52,1.39-2.55,3.04-3.2,4.97-3.22-4.69-6.68-9.16-10.89-13.02,.56-1.5,.88-3.02,.63-4.65-.6-3.94-2.68-6.8-6.4-8.18-3.83-1.41-7.49-.93-10.64,1.89-1.79-.66-3.58-1.31-5.36-1.98-3.43-1.29-7.04-1.93-10.58-2.79,.32-.46,.65-.91,.95-1.38,2.25-3.53,2.17-7.96-.2-11.26-2.49-3.47-6.92-5.06-11.02-3.97-4.17,1.12-6.99,4.4-7.5,8.65-.33,2.77,.55,5.18,2.05,7.43-2.72,.44-5.43,.89-8.15,1.33,.01-.24-.01-.49,.05-.71,1.41-5-1.42-8.75-4.68-11.04-1.59-1.12-3.6-1.51-5.46-1.4-2.9,.17-5.42,1.32-7.51,3.62-3.23,3.56-3.35,9.59,.07,13,.73,.73,1.45,1.48,2.17,2.23-4.99,2.71-9.52,6.07-13.78,9.8-1.2-.02-2.39-.08-3.59-.05-4.76,.11-8.85,4.34-9.04,9.1-.08,2.05,.46,3.93,1.04,5.82-2.47,4.99-4.5,10.15-5.97,15.52-.54-.34-1.06-.72-1.63-1-3.92-1.94-7.76-1.81-11.27,.83-3.37,2.53-4.63,6.08-3.69,10.18,.96,4.2,3.78,6.67,7.97,7.65,2.57,.6,4.88-.12,7.18-1.11,.12,1.61,.23,3.22,.35,4.82-.64,0-1.28-.02-1.91,.02-4.7,.29-8.79,3.96-9.39,8.42-.7,5.19,1.99,9.7,6.82,11.23,3.5,1.11,6.77,.51,9.73-1.67,1.2,2.32,2.68,4.49,3.67,6.92-.87,.23-1.51-.38-2.25-.62-4.07-1.31-7.74-.58-10.8,2.41-3.05,2.98-3.57,6.65-2.28,10.59,1.18,3.6,4.94,6.68,10.14,6.43,5.33-.27,9.49-4.38,9.54-9.69,0-1.11-.06-2.23-.09-3.34,1.14,1.21,2.3,2.4,3.43,3.62,3.5,3.75,7.62,6.74,11.76,9.72-.38,.29-.77,.57-1.14,.87-4.01,3.26-5.05,8.49-2.57,12.87,2.41,4.25,7.71,6.17,12.41,4.54,4.45-1.55,7.47-6.29,6.69-11.4,2.27,.54,4.54,1.07,6.81,1.61,1.7,3.83,4.88,5.64,8.84,5.74,3.83,.09,7.11-1.4,9-5.05Zm-95.53-48.46c-5.76-.07-10.38,4.29-10.48,9.88-.1,5.53,4.55,10.21,10.17,10.25,5.64,.05,10.35-4.54,10.36-10.07,0-5.51-4.48-10-10.05-10.06Zm60.77-108.82c-5.75-.02-10.33,4.41-10.34,10,0,5.62,4.56,10.13,10.25,10.12,5.53,0,10.17-4.48,10.28-9.91,.12-5.53-4.53-10.18-10.19-10.21Zm56.13,34.53c5.35,.11,10.36-3.58,10.6-10.04,.2-5.32-4.64-10.03-10.08-10.1-5.74-.08-10.36,4.33-10.41,9.93-.05,5.56,4.37,10.12,9.89,10.21Zm65.64,41.72c-5.75-.03-10.28,4.41-10.27,10.07,0,5.64,4.55,10.09,10.29,10.07,5.47-.02,10.3-4.57,10.2-9.98-.11-5.98-4.56-10.11-10.22-10.16Zm-23.28-61.02c-.33,4.47,3.52,10.05,10.21,10.09,5.59,.03,10.09-4.44,10.14-9.95,.05-5.69-4.37-10.14-10.12-10.17-5.78-.03-10.23,4.34-10.23,10.03Zm-72.43,.24c5.76-.03,10.22-4.48,10.16-10.14-.06-5.49-4.56-9.92-10.15-9.99-5.57-.08-10.35,4.61-10.3,10.11,.05,5.68,4.54,10.05,10.3,10.02Zm97.11,23.59c.04-5.65-4.44-10.18-10.11-10.21-5.67-.03-10.24,4.47-10.25,10.1,0,5.57,4.38,9.97,10.01,10.03,5.79,.07,10.3-4.26,10.35-9.92Zm-171.01-6.02c-4.62-.31-10.2,3.11-10.36,9.95-.13,5.62,4.53,10.21,10.26,10.13,6.16-.09,10.19-4.7,10.24-10.14,.06-5.77-5.43-10.35-10.14-9.94Zm104.3,148.36c5.73,0,10.36-4.52,10.3-10.05-.06-5.44-4.63-9.98-10.14-10.07-5.62-.1-10.33,4.47-10.35,10.03-.02,5.68,4.44,10.09,10.2,10.09Zm50.71-118.86c-.03,5.65,4.49,10.2,10.14,10.21,5.62,.01,10.29-4.57,10.31-10.12,.02-5.46-4.49-9.94-10.1-10.01-5.79-.07-10.33,4.27-10.35,9.92Zm5.82,133.22c5.78,0,10.25-4.35,10.3-10.03,.05-5.44-4.77-10.15-10.34-10.1-5.56,.05-10.06,4.51-10.09,10.03-.03,5.75,4.33,10.1,10.13,10.1Zm-13.04-71.04c5.78,0,10.24-4.38,10.21-10.05-.03-5.53-4.48-9.99-10.04-10.07-5.65-.08-10.28,4.42-10.31,10.02-.03,5.72,4.36,10.1,10.14,10.1Zm-17.44,32.02c-4.59-.34-10.12,3.4-10.18,9.86-.05,5.85,4.37,10.19,10.2,10.18,6.29-.01,10.17-4.62,10.28-10.08,.1-4.89-4.17-10.32-10.3-9.96Zm-104.48-108.28c5.82,.04,10.28-4.28,10.31-9.95,.02-5.62-4.51-10.16-10.16-10.17-5.56,0-10.13,4.43-10.19,9.91-.07,5.72,4.32,10.18,10.05,10.22Zm119.1-4.84c.02-5.66-4.46-10.02-10.22-10.12-5.18-.09-10.1,3.67-10.25,9.84-.15,6.19,4.79,10.28,10.1,10.27,6.96-.02,10.56-5.61,10.36-9.99Zm-140.73,33.18c5.75,0,10.25-4.42,10.24-10.06-.01-5.58-4.7-10.15-10.32-10.07-5.52,.08-10.11,4.6-10.18,10.04-.08,5.52,4.56,10.09,10.26,10.09Zm27.59,84.71c-.02-5.71-4.46-10.04-10.26-9.99-5.65,.04-10.03,4.39-10.04,9.97-.01,5.67,4.47,10.17,10.14,10.17,5.68,0,10.48-4.78,10.16-10.14Zm-49.45-56.48c6.09,.36,10.39-4.76,10.43-9.88,.04-5.36-4.53-10.15-10.53-10.24-5.13-.07-9.99,4.83-10.04,9.94-.06,6.07,5.21,10.47,10.14,10.18Zm179.99,33.3c-.03-5.66-4.54-10-10.33-9.94-5.66,.06-10.04,4.4-10.06,9.98-.01,5.61,4.57,10.17,10.21,10.16,5.65-.01,10.21-4.58,10.17-10.19Zm4.33,23.84c.03-5.64-4.49-10.15-10.16-10.15-5.61,0-10.13,4.39-10.19,9.89-.06,5.67,4.38,10.2,10.05,10.24,5.76,.05,10.27-4.32,10.29-9.98Zm-98.62,13.83c0,5.71,4.43,10.1,10.19,10.09,5.6-.01,10.11-4.42,10.17-9.91,.05-5.65-4.43-10.19-10.11-10.22-5.72-.03-10.24,4.4-10.25,10.05Zm-15.92-5.29c-4.87-.69-10.51,4.3-10.3,9.93,.2,5.64,4.52,10.13,10.37,10.04,6.21-.09,10.14-4.95,10.19-10.23,.05-5.65-5.61-10.41-10.26-9.74Z"/><path class="cls-4" d="M32.22,255.03c5.69-.03,10.33,4.48,10.32,10.04,0,5.52-4.76,10.17-10.33,10.11-5.54-.06-10.13-4.56-10.2-10-.07-5.57,4.51-10.12,10.21-10.15Z"/><path class="cls-7" d="M29.32,230.33c-5.81,.02-10.25-4.34-10.24-10.04,0-5.61,4.61-10.13,10.28-10.1,5.48,.03,10.15,4.6,10.22,10.01,.07,5.54-4.56,10.11-10.26,10.12Z"/><path class="cls-7" d="M259.2,28.25c4.5-.31,10.21,3.42,10.27,10.07,.05,5.49-4.83,10.16-10.38,10.07-5.57-.09-10.08-4.57-10.13-10.06-.05-5.62,4.47-10.07,10.24-10.07Z"/><path class="cls-10" d="M257.15,271.51c-1.35-1.21-2.74-2.36-3.62-4.02-2.32-4.4-1.27-10.11,3.6-13.33,2.5-1.25,5.12-1.83,7.89-1.16,5.7,1.38,8.98,6.91,7.45,12.5-1.5,5.47-7.33,8.62-12.85,6.93-.84-.26-1.64-.61-2.47-.92Z"/><path class="cls-7" d="M307.51,0c5.75,.03,10.15,4.47,10.09,10.19-.06,5.49-4.6,9.93-10.18,9.94-5.63,.01-10.31-4.62-10.26-10.15C297.23,4.33,301.74-.03,307.51,0Z"/><path class="cls-5" d="M256.98,198.79c-2.4,1.86-5,3.04-8.16,2.83-4.93-.32-8.94-4.01-9.48-8.88-.55-4.99,2.6-9.6,7.42-10.9,3.22-.87,6.16-.28,8.87,1.6,.46,.32,.92,.62,1.38,.94,.59,1.37,1.72,2.41,2.17,3.89,.56,1.84,.83,3.66,.41,5.56-.45,1.88-1.58,3.4-2.61,4.97Z"/><path class="cls-9" d="M214.33,94.54c-.69,.84,.24,1.25,.53,1.77,2.51,4.49,1.57,9.83-2.35,12.94-3.98,3.17-9.68,3-13.41-.38-3.29-2.98-4.25-7.6-2.4-11.58,1.82-3.93,6.08-6.35,10.35-5.82,1.18,.15,2.33,.44,3.5,.67,0,0-.05-.02-.05-.02,.26,.53,.69,.67,1.24,.52,.35,.28,.66,.63,1.15,.69-.15,.48,.06,.7,.53,.75,0,0-.04-.03-.04-.03,.13,.56,.3,1.03,.99,.52l-.04-.03Z"/><path class="cls-10" d="M286.72,224.45c1.79,.65,3.58,1.34,4.92,2.75,1.79,1.88,2.99,4.06,2.88,6.78-.05,1.34-.05,2.69-.07,4.03-.83,.22-.93,1.04-1.3,1.63-2.48,3.94-7.12,5.75-11.66,4.49-4.21-1.16-7.26-5.1-7.42-9.56-.18-5.06,4.18-9.82,9.29-10.11,1.12-.06,2.24-.02,3.36-.02Z"/><path class="cls-3" d="M257.1,249.07c-5.56-.72-9.03-5.34-9.13-9.73-.11-4.73,2.94-8.82,7.52-10.07,.53-.15,1.06-.3,1.6-.46,1.28,.06,2.55,.13,3.8,.45,4.74,1.21,8.06,5.79,7.61,10.56-.47,4.98-4.51,8.89-9.48,9.18-.64,.04-1.28,.05-1.92,.07Z"/><path class="cls-4" d="M257.1,102.25c-3.18-.63-5.83-2.06-7.61-4.9-3.41-5.43-.62-12.96,5.53-14.79,.69-.2,1.39-.37,2.08-.55,1.26,.12,2.53,.03,3.79,.39,4.82,1.37,8.09,5.88,7.57,10.56-.56,5.03-4.45,8.84-9.45,9.22-.64,.05-1.27,.05-1.91,.07Z"/><path class="cls-4" d="M292.67,124.7c2.39,.29,4.71,.75,6.68,2.3,4.47,3.52,5.23,9.85,1.68,14.26-3.55,4.42-10.41,5.01-14.76,1.26-.54-.47-1.02-1-1.53-1.5-.97-1.74-1.81-3.5-1.89-5.56-.19-4.98,2.87-9.1,7.73-10.31,.69-.17,1.39-.3,2.09-.45Z"/><path class="cls-5" d="M285.84,60.91c0-5.62,4.55-10.06,10.28-10.04,5.67,.02,10.27,4.62,10.18,10.19-.08,5.47-4.65,9.91-10.21,9.94-5.69,.03-10.25-4.46-10.25-10.09Z"/><path class="cls-9" d="M257.07,225.07c-2.05,.33-4.08,.56-6.15-.08-4.81-1.49-7.9-6.18-7.2-11.06,.71-4.89,4.97-8.56,9.98-8.64,1.13-.02,2.23,.11,3.32,.37,2.94,1.17,5.22,3.02,6.42,6.06,1.82,4.64-.04,9.9-4.44,12.37-.62,.35-1.28,.64-1.93,.96Z"/><path class="cls-5" d="M65.8,239.08c1.83-.81,3.69-1.34,5.75-1.29,7.45,.18,12.12,7.8,8.81,14.46-.32,.64-.68,1.26-1.02,1.88-1.82,1.7-3.76,3.13-6.34,3.53-4.57,.71-8.96-1.4-10.97-5.4-2.05-4.08-1.15-8.72,2.32-11.95,.46-.43,.97-.83,1.45-1.24Z"/><path class="cls-2" d="M257.06,124.65c-.65-.7-1.24-1.45-1.94-2.08-3.69-3.37-3.7-10.06,.04-13.44,.7-.63,1.46-1.24,1.93-2.1,1.34-.2,2.53-.88,3.88-1.14,4.49-.87,11.09,1.94,11.84,9.1,.6,5.7-4.08,10.68-9.94,10.87-2.07,.07-3.89-.72-5.81-1.21Z"/><path class="cls-9" d="M56.49,223.53c.17-.7,.32-1.4,.51-2.09,1.28-4.63,6.03-7.9,10.71-7.39,5.13,.56,9,4.39,9.38,9.29,.38,4.91-2.95,9.43-7.83,10.58-2.58,.61-5.05,.06-7.47-.85-2.12-2.99-4-6.1-5.29-9.54Z"/><path class="cls-2" d="M100.64,86.84c4.29,1.25,7.34,5.39,6.71,10.79-.42,3.64-2.93,7.44-8.2,8.46-6.59,1.27-12.68-4-11.96-10.61,4.14-3.41,8.6-6.32,13.45-8.63Z"/><path class="cls-4" d="M185.56,79.57c-.02,1.42,.42,2.78,.13,4.26-.81,4.25-3.69,7.24-7.87,8.36-3.73,1-8.77-1.23-10.58-3.98-2.39-3.62-2.55-7.78-.17-11.46,.3-.47,.6-.94,.9-1.41,3.79,.1,7.39,1.19,11.02,2.1,2.23,.56,4.51,1.02,6.56,2.13Z"/><path class="cls-11" d="M51.96,143.01c1.43-.02,2.85-.17,4.27,.22,4.04,1.11,6.66,3.62,7.55,7.75,.87,4.04-.44,7.44-3.67,9.92-3.38,2.6-7.14,2.9-11.01,1.06-.64-.31-1.22-.75-1.82-1.13,.78-6.15,2.4-12.07,4.69-17.82Z"/><path class="cls-9" d="M91.87,263.89c1.87-5.84,8.44-8.68,14.15-6.1,5.38,2.42,7.45,8.98,4.52,14.12-.31,.55-.69,1.07-1.03,1.6-1.52-.24-2.82-1.03-4.17-1.67-4.01-1.92-7.89-4.06-11.62-6.49-.66-.43-1.4-.76-1.85-1.46Z"/><path class="cls-6" d="M148.12,281.99c-.14-3,.63-5.66,2.85-7.8,3.04-2.94,6.73-3.61,10.57-2.39,4.16,1.33,6.52,4.39,6.81,8.87-2.64,.91-5.43,.91-8.16,1.16-4.01,.36-8.04,.45-12.07,.17Z"/><path class="cls-11" d="M174.5,279.59c-1.55-5.28,1.3-9.84,4.91-11.76,4.14-2.21,9.25-1.36,12.46,2.07,.93,1,1.68,2.11,2.05,3.44-4.77,2.44-9.88,3.91-15.01,5.33-1.44,.4-2.87,.95-4.41,.92Z"/><path class="cls-11" d="M125.07,278.73c5.58-5.33,13.9-2.58,16.21,2.81-5.53-.23-10.94-1.12-16.21-2.81Z"/><path class="cls-4" d="M200.5,270.2c.78-5.94,6.99-9.72,12.77-7.79-3.95,3.1-8.23,5.67-12.77,7.79Z"/><path class="cls-9" d="M81.3,100.31c.91,5.62-5.01,11.5-10.45,10.5,3.13-3.85,6.58-7.38,10.45-10.5Z"/><path class="cls-4" d="M217.8,265.26c2.8,2.05,3.64,7.33,2.04,10.62-.41,.85-.9,1.66-1.35,2.49-.98,.21-.78-.54-.78-1.03,.01-4.03,.05-8.05,.08-12.08Z"/><path class="cls-6" d="M59.34,127.08c1.24,4.49-1.19,9.36-5.56,11.1,1.49-3.88,3.23-7.64,5.56-11.1Z"/><path class="cls-3" d="M234.33,80.66c-2.82,3.24-10.24,3.27-13.08,0,4.36-.16,8.72-.16,13.08,0Z"/><path class="cls-11" d="M203.63,87.46c-4.52,1.13-9.31-1.19-10.87-5.26,3.77,1.45,7.36,3.26,10.87,5.26Z"/><path class="cls-1" d="M211.75,92.64c-.55,.15-.97,0-1.24-.52,.6-.27,.93,.1,1.24,.52Z"/><path class="cls-1" d="M214.38,94.57c-.69,.51-.86,.04-.99-.52,.53-.2,.82,.05,.99,.52Z"/><path class="cls-1" d="M213.43,94.08c-.47-.04-.68-.27-.53-.75,.28,.18,.62,.31,.53,.75Z"/><path class="cls-10" d="M62.72,190.4c5.58,.06,10.06,4.55,10.05,10.06,0,5.53-4.72,10.11-10.36,10.07-5.63-.05-10.27-4.72-10.17-10.25,.1-5.58,4.72-9.94,10.48-9.88Z"/><path class="cls-5" d="M123.49,81.59c5.67,.02,10.31,4.68,10.19,10.21-.12,5.43-4.75,9.91-10.28,9.91-5.69,0-10.26-4.5-10.25-10.12,0-5.59,4.59-10.02,10.34-10Z"/><path class="cls-4" d="M179.62,116.11c-5.52-.08-9.94-4.64-9.89-10.21,.05-5.6,4.67-10.01,10.41-9.93,5.44,.07,10.28,4.78,10.08,10.1-.24,6.46-5.25,10.15-10.6,10.04Z"/><path class="cls-4" d="M245.25,157.83c5.66,.05,10.12,4.18,10.22,10.16,.1,5.41-4.73,9.96-10.2,9.98-5.74,.02-10.28-4.43-10.29-10.07,0-5.65,4.52-10.09,10.27-10.07Z"/><path class="cls-10" d="M221.98,96.81c0-5.69,4.45-10.06,10.23-10.03,5.75,.03,10.17,4.48,10.12,10.17-.05,5.51-4.55,9.98-10.14,9.95-6.69-.04-10.54-5.62-10.21-10.09Z"/><path class="cls-9" d="M149.55,97.05c-5.75,.03-10.25-4.34-10.3-10.02-.05-5.5,4.73-10.19,10.3-10.11,5.6,.08,10.1,4.51,10.15,9.99,.06,5.66-4.4,10.11-10.16,10.14Z"/><path class="cls-10" d="M246.65,120.65c-.04,5.66-4.56,9.99-10.35,9.92-5.63-.07-10.01-4.46-10.01-10.03,0-5.62,4.58-10.13,10.25-10.1,5.66,.03,10.15,4.57,10.11,10.21Z"/><path class="cls-4" d="M75.64,114.63c4.71-.41,10.2,4.17,10.14,9.94-.05,5.44-4.08,10.05-10.24,10.14-5.74,.08-10.39-4.5-10.26-10.13,.16-6.84,5.74-10.26,10.36-9.95Z"/><path class="cls-9" d="M179.95,262.98c-5.76,0-10.21-4.41-10.2-10.09,.02-5.57,4.73-10.13,10.35-10.03,5.52,.1,10.09,4.64,10.14,10.07,.06,5.53-4.57,10.05-10.3,10.05Z"/><path class="cls-11" d="M230.65,144.13c.03-5.65,4.56-9.99,10.35-9.92,5.61,.07,10.12,4.55,10.1,10.01-.02,5.55-4.69,10.13-10.31,10.12-5.65-.01-10.17-4.56-10.14-10.21Z"/><path class="cls-5" d="M236.47,277.35c-5.8,0-10.17-4.35-10.13-10.1,.03-5.51,4.53-9.98,10.09-10.03,5.57-.05,10.4,4.67,10.34,10.1-.05,5.68-4.52,10.03-10.3,10.03Z"/><path class="cls-10" d="M223.43,206.3c-5.78,0-10.17-4.38-10.14-10.1,.03-5.6,4.66-10.1,10.31-10.02,5.56,.08,10.01,4.54,10.04,10.07,.03,5.67-4.43,10.06-10.21,10.05Z"/><path class="cls-4" d="M205.99,238.33c6.13-.36,10.4,5.07,10.3,9.96-.11,5.47-3.99,10.07-10.28,10.08-5.83,.01-10.25-4.33-10.2-10.18,.06-6.46,5.59-10.2,10.18-9.86Z"/><path class="cls-9" d="M101.51,130.05c-5.72-.04-10.12-4.5-10.05-10.22,.07-5.48,4.63-9.92,10.19-9.91,5.65,0,10.19,4.55,10.16,10.17-.02,5.68-4.49,9.99-10.31,9.95Z"/><path class="cls-4" d="M220.61,125.21c.2,4.38-3.4,9.97-10.36,9.99-5.32,.02-10.25-4.08-10.1-10.27,.15-6.17,5.06-9.93,10.25-9.84,5.76,.09,10.24,4.46,10.22,10.12Z"/><path class="cls-9" d="M79.88,158.39c-5.7,0-10.34-4.57-10.26-10.09,.08-5.44,4.67-9.96,10.18-10.04,5.62-.08,10.31,4.5,10.32,10.07,.01,5.64-4.49,10.07-10.24,10.06Z"/><path class="cls-3" d="M107.46,243.1c.32,5.36-4.48,10.14-10.16,10.14-5.67,0-10.16-4.5-10.14-10.17,.01-5.58,4.4-9.93,10.04-9.97,5.81-.04,10.24,4.28,10.26,9.99Z"/><path class="cls-2" d="M58.01,186.61c-4.93,.29-10.2-4.11-10.14-10.18,.05-5.11,4.91-10.01,10.04-9.94,6,.08,10.57,4.88,10.53,10.24-.04,5.11-4.34,10.23-10.43,9.88Z"/><path class="cls-9" d="M238,219.92c.03,5.62-4.52,10.18-10.17,10.19-5.64,.01-10.23-4.55-10.21-10.16,.01-5.57,4.39-9.92,10.06-9.98,5.79-.06,10.3,4.28,10.33,9.94Z"/><path class="cls-4" d="M99.22,211.25c1.32,1.4,2.4,2.97,3.41,4.6,.01,.27,.11,.47,.39,.53,0,0-.03-.01-.03-.01,.03,1.11,.1,2.23,.09,3.34-.04,5.31-4.2,9.42-9.54,9.69-5.2,.26-8.96-2.83-10.14-6.43-1.29-3.93-.77-7.61,2.28-10.59,3.06-2.99,6.72-3.72,10.8-2.41,.74,.24,1.38,.85,2.25,.62,0,0-.01-.02-.01-.02-.04,.38,.23,.53,.5,.68Z"/><path class="cls-11" d="M242.32,243.76c-.03,5.66-4.53,10.03-10.29,9.98-5.67-.05-10.11-4.57-10.05-10.24,.06-5.5,4.58-9.89,10.19-9.89,5.67,0,10.18,4.51,10.16,10.15Z"/><path class="cls-9" d="M143.71,257.59c0-5.64,4.53-10.08,10.25-10.05,5.67,.03,10.16,4.57,10.11,10.22-.05,5.5-4.57,9.9-10.17,9.91-5.76,.02-10.19-4.37-10.19-10.09Z"/><path class="cls-2" d="M127.79,252.3c4.65-.67,10.31,4.09,10.26,9.74-.05,5.28-3.98,10.14-10.19,10.23-5.85,.09-10.17-4.4-10.37-10.04-.2-5.63,5.44-10.61,10.3-9.93Z"/><path class="cls-4" d="M210.39,158.37c-1.63-4.13-3.56-8.12-5.66-12.03,.65-1.93,1.67-3.58,3.2-4.97,3.29-3,8.08-3.53,12-1.24,3.95,2.31,5.9,6.83,4.76,11.05-1.21,4.5-5.04,7.5-9.57,7.68-1.62,.07-3.13-.57-4.73-.49Z"/><path class="cls-2" d="M191.35,225c3.62-3.29,6.99-6.81,10.12-10.57,5.14,.4,8.63,2.89,10.05,7.34,1.25,3.92-.43,9.08-4.61,11.47-5.83,3.34-13.65,.52-15.14-6.64-.11-.54-.28-1.07-.43-1.61Z"/><path class="cls-11" d="M161.48,117.61c-5.23-.5-10.47-.67-15.73-.52-1.5-2.25-2.38-4.66-2.05-7.43,.51-4.25,3.33-7.54,7.5-8.65,4.1-1.1,8.53,.5,11.02,3.97,2.37,3.29,2.45,7.73,.2,11.26-.3,.47-.63,.92-.95,1.38Z"/><path class="cls-6" d="M137.61,118.42c-5.3,1.41-10.44,3.27-15.37,5.68-.72-.74-1.43-1.49-2.17-2.23-3.42-3.41-3.29-9.44-.07-13,2.09-2.3,4.61-3.45,7.51-3.62,1.86-.11,3.87,.29,5.46,1.4,3.27,2.3,6.1,6.04,4.68,11.04-.06,.22-.03,.48-.05,.71Z"/><path class="cls-3" d="M118.19,229.7c2.4,1.23,4.78,2.49,7.2,3.68,2.64,1.31,5.46,2.15,8.21,3.19,.77,5.11-2.24,9.85-6.69,11.4-4.7,1.63-10-.28-12.41-4.54-2.48-4.38-1.44-9.61,2.57-12.87,.37-.3,.76-.58,1.14-.87Z"/><path class="cls-9" d="M90.9,164.3c-.45,3.69-1.32,7.33-1.35,11.07-.01,1.82-.05,3.65-.08,5.47-2.3,.99-4.61,1.71-7.18,1.11-4.2-.98-7.01-3.45-7.97-7.65-.94-4.1,.32-7.64,3.69-10.18,3.51-2.64,7.35-2.77,11.27-.83,.57,.28,1.09,.67,1.63,1Z"/><path class="cls-6" d="M213.57,181.3c.04-5.29-.37-10.54-1.18-15.76,2.38-3.35,8.64-4.01,12.58-1.13,4.69,3.42,5.68,9.48,2.27,14.16-1.68,2.3-4.04,3.51-6.91,3.75-2.35,.2-4.58-.21-6.77-1.02Z"/><path class="cls-11" d="M89.82,185.67c1.09,5.94,2.49,11.8,5.05,17.31,.1,.21,.13,.46,.2,.69-2.96,2.18-6.23,2.78-9.73,1.67-4.82-1.53-7.52-6.04-6.82-11.23,.6-4.47,4.68-8.14,9.39-8.42,.64-.04,1.28-.01,1.91-.02Z"/><path class="cls-10" d="M193.83,133.32c-3.96-3.2-7.97-6.33-12.49-8.74-1.32-.71-2.8-1.14-3.93-2.19,3.16-2.82,6.81-3.3,10.64-1.89,3.73,1.37,5.81,4.24,6.4,8.18,.25,1.62-.07,3.14-.63,4.65Z"/><path class="cls-6" d="M168.69,236.85c2.57-.97,5.17-1.88,7.72-2.92,3.37-1.37,6.46-3.28,9.63-5.04,.1,.75-.32,1.39-.41,2.09-.88,6.46-7.94,9.61-13.17,7.91-1.41-.46-2.46-1.45-3.76-2.04Z"/><path class="cls-2" d="M108.45,133.91c-4.44,4.51-8.24,9.52-11.59,14.87-.59-1.9-1.13-3.77-1.04-5.82,.19-4.77,4.29-8.99,9.04-9.1,1.2-.03,2.39,.03,3.59,.05Z"/><path class="cls-5" d="M140.41,238.18c5.92,.94,11.87,.93,17.84,.68-1.89,3.66-5.17,5.14-9,5.05-3.96-.09-7.14-1.91-8.84-5.74Z"/><path class="cls-1" d="M99.22,211.25c-.27-.15-.54-.3-.5-.68,.38,.07,.48,.34,.5,.68Z"/><path class="cls-1" d="M103.03,216.38c-.29-.06-.38-.26-.39-.53,.26,.08,.38,.26,.39,.53Z"/><g><path class="cls-8" d="M9.39,344.74h2.35v17.29h-2.35v-1.04c-.92,.89-1.97,1.33-3.13,1.33-1.39,0-2.54-.5-3.45-1.49-.91-1.02-1.36-2.29-1.36-3.81s.45-2.73,1.36-3.73c.9-1,2.03-1.5,3.4-1.5,1.19,0,2.25,.48,3.18,1.43v-8.48Zm-5.55,12.28c0,.96,.26,1.73,.78,2.33,.53,.61,1.21,.91,2.02,.91,.87,0,1.57-.29,2.1-.88,.53-.61,.8-1.38,.8-2.31s-.27-1.71-.8-2.31c-.53-.59-1.23-.89-2.08-.89-.8,0-1.48,.3-2.02,.9-.53,.61-.8,1.36-.8,2.25Z"/><path class="cls-8" d="M23.92,357.59h-7.26c.06,.82,.33,1.47,.81,1.96,.48,.48,1.09,.72,1.84,.72,.58,0,1.06-.14,1.45-.41,.37-.27,.8-.78,1.28-1.52l1.98,1.08c-.31,.51-.63,.95-.97,1.32-.34,.37-.7,.67-1.09,.9-.39,.24-.81,.41-1.26,.52-.45,.11-.94,.16-1.47,.16-1.51,0-2.72-.48-3.64-1.43-.92-.96-1.37-2.24-1.37-3.83s.44-2.85,1.33-3.83c.89-.96,2.08-1.44,3.56-1.44s2.67,.47,3.54,1.4c.86,.93,1.29,2.21,1.29,3.86v.54Zm-2.41-1.88c-.33-1.23-1.11-1.84-2.36-1.84-.28,0-.55,.04-.8,.13-.25,.09-.48,.21-.68,.37-.2,.16-.38,.35-.53,.58-.15,.22-.26,.48-.33,.77h4.7Z"/><path class="cls-8" d="M35.39,344.74v17.29h-2.34v-17.29h2.34Z"/><path class="cls-8" d="M40.55,345.54l2.08,.8-2.96,5.86-1.58-.65,2.46-6.01Z"/><path class="cls-8" d="M48.18,346.22v9.52c0,1.36,.23,2.35,.68,2.98,.67,.91,1.62,1.36,2.84,1.36s2.18-.45,2.85-1.36c.45-.61,.68-1.6,.68-2.98v-9.52h2.42v10.18c0,1.67-.53,3.04-1.58,4.12-1.19,1.2-2.64,1.8-4.37,1.8s-3.18-.6-4.36-1.8c-1.05-1.08-1.58-2.45-1.58-4.12v-10.18h2.42Z"/><path class="cls-8" d="M61.19,352.06h2.35v.92c.82-.8,1.74-1.2,2.77-1.2,1.18,0,2.1,.36,2.76,1.1,.57,.62,.85,1.63,.85,3.04v6.11h-2.35v-5.57c0-.98-.14-1.66-.42-2.04-.27-.38-.76-.57-1.48-.57-.78,0-1.33,.25-1.65,.76-.32,.5-.48,1.37-.48,2.61v4.81h-2.35v-9.97Z"/><path class="cls-8" d="M72.51,347.91c0-.4,.15-.75,.45-1.04,.3-.29,.66-.44,1.07-.44s.78,.15,1.08,.44c.3,.29,.45,.64,.45,1.05s-.15,.77-.45,1.06c-.29,.29-.65,.44-1.07,.44s-.78-.15-1.08-.44c-.3-.29-.45-.65-.45-1.08Zm2.69,4.15v9.97h-2.34v-9.97h2.34Z"/><path class="cls-8" d="M79.43,352.06l2.62,5.6,2.61-5.6h2.63l-5.26,10.66-5.22-10.66h2.62Z"/><path class="cls-8" d="M97.73,357.59h-7.26c.06,.82,.33,1.47,.81,1.96,.48,.48,1.09,.72,1.84,.72,.58,0,1.06-.14,1.45-.41,.37-.27,.8-.78,1.28-1.52l1.98,1.08c-.31,.51-.63,.95-.97,1.32-.34,.37-.7,.67-1.09,.9-.39,.24-.81,.41-1.26,.52-.45,.11-.94,.16-1.47,.16-1.51,0-2.72-.48-3.64-1.43-.92-.96-1.37-2.24-1.37-3.83s.44-2.85,1.33-3.83c.89-.96,2.08-1.44,3.56-1.44s2.67,.47,3.54,1.4c.86,.93,1.29,2.21,1.29,3.86v.54Zm-2.41-1.88c-.33-1.23-1.11-1.84-2.36-1.84-.28,0-.55,.04-.8,.13-.25,.09-.48,.21-.68,.37-.2,.16-.38,.35-.53,.58-.15,.22-.26,.48-.33,.77h4.7Z"/><path class="cls-8" d="M100.29,352.06h2.34v.89c.43-.44,.81-.75,1.14-.91,.34-.17,.74-.26,1.21-.26,.62,0,1.26,.2,1.93,.59l-1.07,2.11c-.44-.31-.88-.47-1.3-.47-1.28,0-1.91,.95-1.91,2.85v5.17h-2.34v-9.97Z"/><path class="cls-8" d="M114.14,353.76l-1.93,1.01c-.31-.61-.68-.92-1.13-.92-.21,0-.4,.07-.55,.21-.15,.14-.23,.32-.23,.54,0,.38,.45,.76,1.35,1.14,1.24,.53,2.08,1.01,2.51,1.45,.43,.44,.64,1.04,.64,1.79,0,.96-.36,1.77-1.08,2.42-.7,.61-1.55,.92-2.54,.92-1.7,0-2.9-.82-3.61-2.45l2-.91c.28,.48,.49,.78,.63,.91,.28,.26,.62,.39,1.02,.39,.79,0,1.19-.36,1.19-1.06,0-.41-.31-.79-.91-1.15-.24-.12-.47-.23-.71-.34-.24-.11-.48-.22-.72-.34-.68-.33-1.16-.66-1.44-.98-.35-.42-.53-.95-.53-1.61,0-.87,.3-1.58,.9-2.15,.62-.57,1.37-.85,2.25-.85,1.3,0,2.26,.66,2.89,1.98Z"/><path class="cls-8" d="M116.54,347.91c0-.4,.15-.75,.45-1.04,.3-.29,.66-.44,1.07-.44s.78,.15,1.08,.44c.3,.29,.45,.64,.45,1.05s-.15,.77-.45,1.06c-.29,.29-.65,.44-1.07,.44s-.78-.15-1.08-.44c-.3-.29-.45-.65-.45-1.08Zm2.69,4.15v9.97h-2.34v-9.97h2.34Z"/><path class="cls-8" d="M124.61,354.21v7.82h-2.34v-7.82h-1v-2.15h1v-3.66h2.34v3.66h1.82v2.15h-1.82Z"/><path class="cls-8" d="M137.44,357.59h-7.26c.06,.82,.33,1.47,.81,1.96,.48,.48,1.09,.72,1.84,.72,.58,0,1.06-.14,1.45-.41,.37-.27,.8-.78,1.28-1.52l1.98,1.08c-.3,.51-.63,.95-.97,1.32-.34,.37-.7,.67-1.09,.9-.39,.24-.81,.41-1.26,.52-.45,.11-.94,.16-1.47,.16-1.51,0-2.72-.48-3.64-1.43-.92-.96-1.37-2.24-1.37-3.83s.44-2.85,1.33-3.83c.89-.96,2.08-1.44,3.56-1.44s2.67,.47,3.54,1.4c.86,.93,1.29,2.21,1.29,3.86v.54Zm-2.41-1.88c-.33-1.23-1.11-1.84-2.36-1.84-.28,0-.55,.04-.8,.13-.25,.09-.48,.21-.68,.37-.2,.16-.38,.35-.53,.58-.15,.22-.26,.48-.33,.77h4.7Zm1.1-8.56l-3.79,3.38-1.28-.78,2.86-3.73,2.2,1.13Z"/><path class="cls-8" d="M154.03,344.74h2.35v17.29h-2.35v-1.04c-.92,.89-1.97,1.33-3.13,1.33-1.39,0-2.54-.5-3.45-1.49-.91-1.02-1.36-2.29-1.36-3.81s.45-2.73,1.36-3.73c.9-1,2.03-1.5,3.4-1.5,1.19,0,2.25,.48,3.18,1.43v-8.48Zm-5.55,12.28c0,.96,.26,1.73,.78,2.33,.53,.61,1.21,.91,2.02,.91,.87,0,1.57-.29,2.1-.88,.53-.61,.8-1.38,.8-2.31s-.27-1.71-.8-2.31c-.53-.59-1.23-.89-2.08-.89-.8,0-1.48,.3-2.02,.9-.53,.61-.8,1.36-.8,2.25Z"/><path class="cls-8" d="M168.56,357.59h-7.26c.06,.82,.33,1.47,.81,1.96,.48,.48,1.09,.72,1.84,.72,.58,0,1.06-.14,1.45-.41,.37-.27,.8-.78,1.28-1.52l1.98,1.08c-.31,.51-.63,.95-.97,1.32-.34,.37-.7,.67-1.09,.9-.39,.24-.81,.41-1.26,.52-.45,.11-.94,.16-1.47,.16-1.51,0-2.72-.48-3.64-1.43-.92-.96-1.37-2.24-1.37-3.83s.44-2.85,1.33-3.83c.89-.96,2.08-1.44,3.56-1.44s2.67,.47,3.54,1.4c.86,.93,1.29,2.21,1.29,3.86v.54Zm-2.41-1.88c-.33-1.23-1.11-1.84-2.36-1.84-.28,0-.55,.04-.8,.13-.25,.09-.48,.21-.68,.37-.2,.16-.38,.35-.53,.58-.15,.22-.26,.48-.33,.77h4.7Z"/><path class="cls-8" d="M182.57,348.47v13.57h-2.42v-13.57h-3.69v-2.24h9.8v2.24h-3.68Z"/><path class="cls-8" d="M196.32,357.59h-7.26c.06,.82,.33,1.47,.81,1.96,.48,.48,1.09,.72,1.84,.72,.58,0,1.06-.14,1.45-.41,.37-.27,.8-.78,1.28-1.52l1.98,1.08c-.31,.51-.63,.95-.97,1.32-.34,.37-.7,.67-1.09,.9-.39,.24-.81,.41-1.26,.52-.45,.11-.94,.16-1.47,.16-1.51,0-2.72-.48-3.64-1.43-.92-.96-1.37-2.24-1.37-3.83s.44-2.85,1.33-3.83c.89-.96,2.08-1.44,3.56-1.44s2.67,.47,3.54,1.4c.86,.93,1.29,2.21,1.29,3.86v.54Zm-2.41-1.88c-.33-1.23-1.11-1.84-2.36-1.84-.28,0-.55,.04-.8,.13-.25,.09-.48,.21-.68,.37-.2,.16-.38,.35-.53,.58-.15,.22-.26,.48-.33,.77h4.7Z"/><path class="cls-8" d="M206.76,352.49v3.06c-.53-.64-1.01-1.08-1.43-1.32-.42-.25-.9-.37-1.47-.37-.88,0-1.61,.3-2.19,.91-.58,.61-.87,1.37-.87,2.28s.28,1.7,.84,2.3c.57,.6,1.29,.9,2.17,.9,.56,0,1.06-.12,1.49-.36,.42-.23,.9-.68,1.47-1.35v3.04c-.95,.48-1.9,.73-2.85,.73-1.57,0-2.88-.5-3.93-1.49-1.05-1-1.58-2.25-1.58-3.74s.53-2.74,1.6-3.77c1.07-1.02,2.38-1.53,3.93-1.53,1,0,1.94,.24,2.83,.71Z"/><path class="cls-8" d="M209.58,344.74h2.34v8.15c.83-.74,1.75-1.11,2.76-1.11,1.14,0,2.06,.36,2.75,1.1,.58,.63,.87,1.65,.87,3.04v6.11h-2.34v-5.9c0-.8-.14-1.38-.43-1.74-.29-.36-.75-.54-1.39-.54-.82,0-1.39,.25-1.73,.75-.33,.5-.49,1.37-.49,2.6v4.82h-2.34v-17.29Z"/><path class="cls-8" d="M221.25,352.06h2.35v.92c.82-.8,1.74-1.2,2.77-1.2,1.18,0,2.1,.36,2.76,1.1,.57,.62,.85,1.63,.85,3.04v6.11h-2.35v-5.57c0-.98-.14-1.66-.42-2.04-.27-.38-.76-.57-1.48-.57-.78,0-1.33,.25-1.65,.76-.32,.5-.48,1.37-.48,2.61v4.81h-2.35v-9.97Z"/><path class="cls-8" d="M232.45,356.97c0-1.44,.52-2.67,1.57-3.68,1.05-1.01,2.32-1.52,3.83-1.52s2.79,.51,3.85,1.53c1.04,1.02,1.56,2.27,1.56,3.75s-.52,2.75-1.57,3.76c-1.05,1-2.35,1.51-3.88,1.51s-2.79-.51-3.82-1.54c-1.03-1.01-1.54-2.28-1.54-3.81Zm2.39,.04c0,1,.27,1.78,.81,2.36,.55,.59,1.29,.88,2.19,.88s1.65-.29,2.19-.87c.55-.58,.82-1.35,.82-2.32s-.27-1.74-.82-2.32c-.55-.59-1.29-.88-2.19-.88s-1.62,.29-2.17,.88c-.55,.59-.83,1.34-.83,2.27Z"/><path class="cls-8" d="M248.07,344.74v17.29h-2.34v-17.29h2.34Z"/><path class="cls-8" d="M250.56,356.97c0-1.44,.52-2.67,1.57-3.68,1.05-1.01,2.32-1.52,3.83-1.52s2.79,.51,3.85,1.53c1.04,1.02,1.56,2.27,1.56,3.75s-.52,2.75-1.57,3.76c-1.05,1-2.35,1.51-3.88,1.51s-2.79-.51-3.82-1.54c-1.03-1.01-1.54-2.28-1.54-3.81Zm2.39,.04c0,1,.27,1.78,.81,2.36,.55,.59,1.29,.88,2.19,.88s1.65-.29,2.19-.87c.55-.58,.82-1.35,.82-2.32s-.27-1.74-.82-2.32c-.55-.59-1.29-.88-2.19-.88s-1.62,.29-2.17,.88c-.55,.59-.83,1.34-.83,2.27Z"/><path class="cls-8" d="M273.63,361.79c0,.47-.02,.89-.05,1.24-.03,.36-.07,.67-.13,.95-.17,.75-.49,1.4-.98,1.93-.91,1.04-2.17,1.56-3.77,1.56-1.35,0-2.47-.36-3.34-1.07-.9-.74-1.42-1.76-1.56-3.06h2.35c.09,.49,.24,.87,.45,1.14,.48,.62,1.19,.93,2.12,.93,1.71,0,2.57-1.03,2.57-3.1v-1.39c-.93,.93-2,1.4-3.21,1.4-1.38,0-2.51-.49-3.39-1.47-.89-1-1.33-2.24-1.33-3.74s.41-2.69,1.24-3.71c.89-1.08,2.06-1.62,3.52-1.62,1.28,0,2.34,.47,3.18,1.4v-1.13h2.34v9.74Zm-2.25-4.73c0-.97-.26-1.74-.79-2.32-.53-.59-1.22-.89-2.05-.89-.89,0-1.59,.32-2.1,.97-.46,.58-.7,1.33-.7,2.25s.23,1.65,.7,2.23c.51,.63,1.21,.95,2.1,.95s1.6-.32,2.12-.96c.48-.58,.72-1.32,.72-2.23Z"/><path class="cls-8" d="M276.23,347.91c0-.4,.15-.75,.45-1.04,.3-.29,.66-.44,1.07-.44s.78,.15,1.08,.44c.3,.29,.45,.64,.45,1.05s-.15,.77-.45,1.06c-.29,.29-.65,.44-1.07,.44s-.78-.15-1.08-.44c-.3-.29-.45-.65-.45-1.08Zm2.69,4.15v9.97h-2.34v-9.97h2.34Z"/><path class="cls-8" d="M291.11,357.59h-7.26c.06,.82,.33,1.47,.81,1.96,.48,.48,1.09,.72,1.84,.72,.58,0,1.06-.14,1.45-.41,.37-.27,.8-.78,1.28-1.52l1.98,1.08c-.31,.51-.63,.95-.97,1.32-.34,.37-.7,.67-1.09,.9-.39,.24-.81,.41-1.26,.52-.45,.11-.94,.16-1.47,.16-1.51,0-2.72-.48-3.64-1.43-.92-.96-1.37-2.24-1.37-3.83s.44-2.85,1.33-3.83c.89-.96,2.08-1.44,3.56-1.44s2.67,.47,3.54,1.4c.86,.93,1.29,2.21,1.29,3.86v.54Zm-2.41-1.88c-.33-1.23-1.11-1.84-2.36-1.84-.28,0-.55,.04-.8,.13-.25,.09-.48,.21-.68,.37-.2,.16-.38,.35-.53,.58-.15,.22-.26,.48-.33,.77h4.7Z"/><path class="cls-8" d="M307.71,344.74h2.35v17.29h-2.35v-1.04c-.92,.89-1.97,1.33-3.13,1.33-1.39,0-2.54-.5-3.45-1.49-.91-1.02-1.36-2.29-1.36-3.81s.45-2.73,1.36-3.73c.9-1,2.03-1.5,3.4-1.5,1.19,0,2.25,.48,3.18,1.43v-8.48Zm-5.55,12.28c0,.96,.26,1.73,.78,2.33,.53,.61,1.21,.91,2.02,.91,.87,0,1.57-.29,2.1-.88,.53-.61,.8-1.38,.8-2.31s-.27-1.71-.8-2.31c-.53-.59-1.23-.89-2.08-.89-.8,0-1.48,.3-2.02,.9-.53,.61-.8,1.36-.8,2.25Z"/><path class="cls-8" d="M322.24,357.59h-7.26c.06,.82,.33,1.47,.81,1.96,.48,.48,1.09,.72,1.84,.72,.58,0,1.06-.14,1.45-.41,.37-.27,.8-.78,1.28-1.52l1.98,1.08c-.31,.51-.63,.95-.97,1.32-.34,.37-.7,.67-1.09,.9-.39,.24-.81,.41-1.26,.52-.45,.11-.94,.16-1.47,.16-1.51,0-2.72-.48-3.64-1.43-.92-.96-1.37-2.24-1.37-3.83s.44-2.85,1.33-3.83c.89-.96,2.08-1.44,3.56-1.44s2.67,.47,3.54,1.4c.86,.93,1.29,2.21,1.29,3.86v.54Zm-2.41-1.88c-.33-1.23-1.11-1.84-2.36-1.84-.28,0-.55,.04-.8,.13-.25,.09-.48,.21-.68,.37-.2,.16-.38,.35-.53,.58-.15,.22-.26,.48-.33,.77h4.7Z"/><path class="cls-8" d="M331.82,362.03v-15.81h2.41c1.07,0,1.93,.08,2.57,.25,.64,.16,1.19,.44,1.63,.83,.45,.4,.81,.9,1.07,1.51,.27,.61,.41,1.22,.41,1.84,0,1.13-.44,2.09-1.32,2.88,.85,.29,1.53,.79,2.02,1.51,.5,.71,.75,1.54,.75,2.48,0,1.24-.44,2.28-1.33,3.13-.53,.53-1.13,.89-1.8,1.1-.73,.2-1.64,.3-2.73,.3h-3.67Zm2.42-9.02h.76c.9,0,1.56-.2,1.98-.59,.42-.39,.63-.97,.63-1.74s-.21-1.31-.64-1.69c-.43-.39-1.05-.58-1.87-.58h-.85v4.6Zm0,6.78h1.5c1.1,0,1.9-.21,2.41-.63,.54-.46,.81-1.04,.81-1.74s-.26-1.26-.78-1.72c-.51-.46-1.41-.69-2.71-.69h-1.23v4.78Z"/><path class="cls-8" d="M353.19,357.59h-7.26c.06,.82,.33,1.47,.81,1.96,.48,.48,1.09,.72,1.84,.72,.58,0,1.06-.14,1.45-.41,.37-.27,.8-.78,1.28-1.52l1.98,1.08c-.3,.51-.63,.95-.97,1.32-.34,.37-.7,.67-1.09,.9-.39,.24-.81,.41-1.26,.52-.45,.11-.94,.16-1.47,.16-1.51,0-2.73-.48-3.64-1.43-.91-.96-1.37-2.24-1.37-3.83s.44-2.85,1.33-3.83c.89-.96,2.08-1.44,3.56-1.44s2.67,.47,3.54,1.4c.86,.93,1.29,2.21,1.29,3.86v.54Zm-2.41-1.88c-.33-1.23-1.11-1.84-2.36-1.84-.28,0-.55,.04-.8,.13-.25,.09-.48,.21-.68,.37-.2,.16-.38,.35-.53,.58-.14,.22-.26,.48-.33,.77h4.7Z"/><path class="cls-8" d="M358.09,344.74v17.29h-2.34v-17.29h2.34Z"/><path class="cls-8" d="M363.47,354.21v7.82h-2.35v-7.82h-.83v-2.15h.83v-3.85c0-1.26,.22-2.14,.67-2.66,.61-.72,1.5-1.09,2.66-1.09,.42,0,.94,.12,1.57,.36v2.35l-.24-.12c-.51-.25-.92-.38-1.25-.38-.42,0-.7,.15-.84,.44-.15,.29-.22,.84-.22,1.66v3.29h2.55v2.15h-2.55Z"/><path class="cls-8" d="M367.15,356.97c0-1.44,.52-2.67,1.57-3.68,1.05-1.01,2.32-1.52,3.83-1.52s2.79,.51,3.85,1.53c1.04,1.02,1.56,2.27,1.56,3.75s-.52,2.75-1.57,3.76c-1.05,1-2.35,1.51-3.88,1.51s-2.79-.51-3.82-1.54c-1.03-1.01-1.54-2.28-1.54-3.81Zm2.39,.04c0,1,.27,1.78,.81,2.36,.55,.59,1.29,.88,2.19,.88s1.65-.29,2.19-.87c.55-.58,.82-1.35,.82-2.32s-.27-1.74-.82-2.32c-.55-.59-1.29-.88-2.19-.88s-1.62,.29-2.17,.88c-.55,.59-.83,1.34-.83,2.27Z"/><path class="cls-8" d="M380.43,352.06h2.34v.89c.43-.44,.81-.75,1.14-.91,.34-.17,.74-.26,1.21-.26,.62,0,1.26,.2,1.93,.59l-1.07,2.11c-.44-.31-.88-.47-1.3-.47-1.28,0-1.91,.95-1.91,2.85v5.17h-2.34v-9.97Z"/><path class="cls-8" d="M391.58,354.21v7.82h-2.34v-7.82h-1v-2.15h1v-3.66h2.34v3.66h1.82v2.15h-1.82Z"/><path class="cls-8" d="M401.45,362.03l3.38-17,5.51,12.29,5.71-12.29,3.04,17h-2.49l-1.55-9.54-4.75,10.27-4.62-10.28-1.73,9.55h-2.51Z"/><path class="cls-8" d="M421.56,356.97c0-1.44,.52-2.67,1.57-3.68,1.05-1.01,2.32-1.52,3.83-1.52s2.79,.51,3.85,1.53c1.04,1.02,1.56,2.27,1.56,3.75s-.52,2.75-1.57,3.76c-1.05,1-2.35,1.51-3.88,1.51s-2.79-.51-3.82-1.54c-1.03-1.01-1.54-2.28-1.54-3.81Zm2.39,.04c0,1,.27,1.78,.81,2.36,.55,.59,1.29,.88,2.19,.88s1.65-.29,2.19-.87c.55-.58,.82-1.35,.82-2.32s-.27-1.74-.82-2.32c-.55-.59-1.29-.88-2.19-.88s-1.62,.29-2.17,.88c-.55,.59-.83,1.34-.83,2.27Z"/><path class="cls-8" d="M434.84,352.06h2.35v.92c.82-.8,1.74-1.2,2.77-1.2,1.18,0,2.1,.36,2.76,1.1,.57,.62,.85,1.63,.85,3.04v6.11h-2.35v-5.57c0-.98-.14-1.66-.42-2.04-.27-.38-.76-.57-1.48-.57-.78,0-1.33,.25-1.65,.76-.32,.5-.48,1.37-.48,2.61v4.81h-2.35v-9.97Z"/><path class="cls-8" d="M448.93,354.21v7.82h-2.34v-7.82h-1v-2.15h1v-3.66h2.34v3.66h1.82v2.15h-1.82Z"/><path class="cls-8" d="M454.68,344.74v8.48c.94-.96,2-1.43,3.18-1.43,1.37,0,2.5,.5,3.41,1.5,.91,1,1.36,2.24,1.36,3.73s-.46,2.81-1.37,3.81c-.91,1-2.06,1.49-3.44,1.49-1.17,0-2.22-.44-3.14-1.33v1.04h-2.34v-17.29h2.34Zm5.56,12.38c0-.96-.26-1.73-.79-2.33-.53-.61-1.2-.92-2.01-.92-.86,0-1.56,.3-2.1,.89-.53,.59-.8,1.35-.8,2.29s.26,1.74,.79,2.32c.53,.59,1.22,.89,2.08,.89,.81,0,1.48-.3,2.02-.89,.54-.6,.81-1.35,.81-2.25Z"/><path class="cls-8" d="M474.34,357.59h-7.26c.06,.82,.33,1.47,.81,1.96,.48,.48,1.09,.72,1.84,.72,.58,0,1.06-.14,1.45-.41,.37-.27,.8-.78,1.28-1.52l1.98,1.08c-.31,.51-.63,.95-.97,1.32-.34,.37-.7,.67-1.09,.9-.39,.24-.81,.41-1.26,.52-.45,.11-.94,.16-1.47,.16-1.51,0-2.72-.48-3.64-1.43-.92-.96-1.37-2.24-1.37-3.83s.44-2.85,1.33-3.83c.89-.96,2.08-1.44,3.56-1.44s2.67,.47,3.54,1.4c.86,.93,1.29,2.21,1.29,3.86v.54Zm-2.41-1.88c-.33-1.23-1.11-1.84-2.36-1.84-.28,0-.55,.04-.8,.13-.25,.09-.48,.21-.68,.37-.2,.16-.38,.35-.53,.58-.15,.22-.26,.48-.33,.77h4.7Zm1.1-8.56l-3.78,3.38-1.28-.78,2.86-3.73,2.2,1.13Z"/><path class="cls-8" d="M479.23,344.74v17.29h-2.34v-17.29h2.34Z"/><path class="cls-8" d="M481.84,347.91c0-.4,.15-.75,.45-1.04,.3-.29,.66-.44,1.07-.44s.78,.15,1.08,.44c.3,.29,.45,.64,.45,1.05s-.15,.77-.45,1.06c-.29,.29-.65,.44-1.07,.44s-.78-.15-1.08-.44-.45-.65-.45-1.08Zm2.69,4.15v9.97h-2.34v-9.97h2.34Z"/><path class="cls-8" d="M494.97,352.06h2.35v9.97h-2.35v-1.04c-.96,.89-2,1.33-3.11,1.33-1.4,0-2.56-.5-3.47-1.49-.91-1.02-1.36-2.29-1.36-3.81s.45-2.74,1.36-3.74c.91-1,2.05-1.49,3.41-1.49,1.18,0,2.24,.48,3.17,1.43v-1.16Zm-5.55,4.96c0,.96,.26,1.73,.78,2.33,.53,.61,1.21,.91,2.02,.91,.87,0,1.57-.29,2.1-.88,.53-.61,.8-1.38,.8-2.31s-.27-1.71-.8-2.31c-.53-.59-1.23-.89-2.08-.89-.8,0-1.48,.3-2.02,.9-.53,.61-.8,1.36-.8,2.25Z"/><path class="cls-8" d="M500.27,352.06h2.34v.89c.43-.44,.81-.75,1.14-.91,.34-.17,.74-.26,1.21-.26,.62,0,1.26,.2,1.93,.59l-1.07,2.11c-.44-.31-.88-.47-1.3-.47-1.28,0-1.91,.95-1.91,2.85v5.17h-2.34v-9.97Z"/><path class="cls-8" d="M515.56,344.74h2.35v17.29h-2.35v-1.04c-.92,.89-1.96,1.33-3.13,1.33-1.39,0-2.54-.5-3.45-1.49-.91-1.02-1.36-2.29-1.36-3.81s.45-2.73,1.36-3.73c.9-1,2.03-1.5,3.4-1.5,1.19,0,2.25,.48,3.18,1.43v-8.48Zm-5.55,12.28c0,.96,.26,1.73,.78,2.33,.53,.61,1.21,.91,2.02,.91,.87,0,1.57-.29,2.1-.88,.53-.61,.8-1.38,.8-2.31s-.27-1.71-.8-2.31c-.53-.59-1.23-.89-2.08-.89-.8,0-1.48,.3-2.02,.9-.53,.61-.8,1.36-.8,2.25Z"/></g><g><path class="cls-8" d="M17.35,315.46h5.13v21.78h-5.13v-2.28c-2.1,1.94-4.37,2.91-6.79,2.91-3.06,0-5.59-1.09-7.59-3.26-1.98-2.22-2.98-4.99-2.98-8.32s.99-5.99,2.98-8.16c1.98-2.18,4.47-3.26,7.45-3.26,2.57,0,4.88,1.04,6.93,3.13v-2.53Zm-12.13,10.82c0,2.09,.57,3.79,1.7,5.1,1.17,1.33,2.63,1.99,4.41,1.99,1.89,0,3.42-.64,4.59-1.92,1.17-1.33,1.75-3.01,1.75-5.05s-.58-3.73-1.75-5.05c-1.17-1.3-2.68-1.95-4.54-1.95-1.76,0-3.23,.66-4.41,1.97-1.17,1.33-1.75,2.97-1.75,4.92Z"/><path class="cls-8" d="M41.79,319.17l-4.22,2.21c-.67-1.34-1.49-2.01-2.48-2.01-.47,0-.87,.15-1.2,.46-.33,.31-.5,.7-.5,1.17,0,.83,.98,1.66,2.95,2.48,2.71,1.15,4.53,2.21,5.47,3.18,.94,.97,1.41,2.27,1.41,3.91,0,2.1-.79,3.86-2.36,5.28-1.53,1.34-3.38,2.01-5.54,2.01-3.71,0-6.34-1.78-7.88-5.34l4.36-1.99c.61,1.04,1.07,1.71,1.39,1.99,.62,.57,1.36,.85,2.23,.85,1.73,0,2.59-.78,2.59-2.33,0-.89-.67-1.73-2-2.5-.51-.25-1.03-.5-1.54-.74-.52-.24-1.04-.48-1.57-.74-1.48-.72-2.53-1.43-3.13-2.15-.77-.91-1.16-2.08-1.16-3.51,0-1.89,.66-3.46,1.98-4.7,1.35-1.24,2.98-1.86,4.91-1.86,2.83,0,4.94,1.44,6.31,4.32Z"/><path class="cls-8" d="M60.67,319.17l-4.22,2.21c-.67-1.34-1.49-2.01-2.48-2.01-.47,0-.87,.15-1.2,.46-.33,.31-.5,.7-.5,1.17,0,.83,.98,1.66,2.95,2.48,2.71,1.15,4.53,2.21,5.47,3.18,.94,.97,1.41,2.27,1.41,3.91,0,2.1-.79,3.86-2.36,5.28-1.53,1.34-3.38,2.01-5.54,2.01-3.71,0-6.34-1.78-7.88-5.34l4.36-1.99c.61,1.04,1.07,1.71,1.39,1.99,.62,.57,1.36,.85,2.23,.85,1.73,0,2.59-.78,2.59-2.33,0-.89-.67-1.73-2-2.5-.51-.25-1.03-.5-1.54-.74-.52-.24-1.04-.48-1.57-.74-1.48-.72-2.53-1.43-3.13-2.15-.77-.91-1.16-2.08-1.16-3.51,0-1.89,.66-3.46,1.98-4.7,1.35-1.24,2.98-1.86,4.91-1.86,2.83,0,4.94,1.44,6.31,4.32Z"/><path class="cls-8" d="M65.64,326.19c0-3.15,1.14-5.82,3.43-8.03,2.29-2.21,5.07-3.31,8.36-3.31s6.1,1.11,8.4,3.33c2.27,2.22,3.41,4.95,3.41,8.18s-1.14,6-3.43,8.21c-2.3,2.19-5.13,3.29-8.47,3.29s-6.09-1.12-8.34-3.35c-2.24-2.21-3.36-4.98-3.36-8.32Zm5.22,.09c0,2.18,.59,3.9,1.77,5.17,1.21,1.28,2.81,1.92,4.79,1.92s3.6-.63,4.79-1.9c1.2-1.27,1.79-2.96,1.79-5.08s-.6-3.81-1.79-5.08c-1.21-1.28-2.81-1.92-4.79-1.92s-3.54,.64-4.75,1.92c-1.21,1.28-1.82,2.94-1.82,4.96Z"/><path class="cls-8" d="M111.86,316.4v6.69c-1.17-1.4-2.21-2.36-3.13-2.88-.91-.54-1.98-.81-3.2-.81-1.92,0-3.52,.66-4.79,1.99-1.27,1.33-1.91,2.99-1.91,4.99s.61,3.72,1.84,5.03c1.24,1.31,2.82,1.97,4.75,1.97,1.23,0,2.31-.26,3.25-.78,.91-.51,1.98-1.49,3.2-2.95v6.64c-2.08,1.06-4.15,1.59-6.22,1.59-3.42,0-6.28-1.09-8.59-3.26-2.3-2.19-3.45-4.91-3.45-8.16s1.17-5.99,3.5-8.23c2.33-2.24,5.19-3.35,8.59-3.35,2.18,0,4.24,.51,6.18,1.54Z"/><path class="cls-8" d="M116.04,306.4c0-.88,.32-1.64,.98-2.28,.65-.64,1.43-.96,2.34-.96s1.71,.32,2.36,.96c.65,.63,.98,1.39,.98,2.3s-.33,1.68-.98,2.33c-.64,.64-1.42,.96-2.34,.96s-1.71-.32-2.36-.96c-.65-.64-.98-1.42-.98-2.35Zm5.88,9.06v21.78h-5.11v-21.78h5.11Z"/><path class="cls-8" d="M144.71,315.46h5.13v21.78h-5.13v-2.28c-2.1,1.94-4.37,2.91-6.79,2.91-3.06,0-5.59-1.09-7.59-3.26-1.98-2.22-2.98-4.99-2.98-8.32s.99-5.99,2.98-8.16c1.98-2.18,4.47-3.26,7.45-3.26,2.57,0,4.88,1.04,6.93,3.13v-2.53Zm-12.13,10.82c0,2.09,.57,3.79,1.7,5.1,1.17,1.33,2.63,1.99,4.41,1.99,1.89,0,3.42-.64,4.59-1.92,1.17-1.33,1.75-3.01,1.75-5.05s-.58-3.73-1.75-5.05c-1.17-1.3-2.68-1.95-4.54-1.95-1.76,0-3.23,.66-4.41,1.97-1.17,1.33-1.75,2.97-1.75,4.92Z"/><path class="cls-8" d="M161.56,320.15v17.08h-5.11v-17.08h-2.18v-4.7h2.18v-7.98h5.11v7.98h3.98v4.7h-3.98Z"/><path class="cls-8" d="M168.24,306.4c0-.88,.33-1.64,.98-2.28,.65-.64,1.43-.96,2.34-.96s1.71,.32,2.36,.96c.65,.63,.98,1.39,.98,2.3s-.33,1.68-.98,2.33c-.64,.64-1.42,.96-2.34,.96s-1.71-.32-2.36-.96c-.65-.64-.98-1.42-.98-2.35Zm5.88,9.06v21.78h-5.11v-21.78h5.11Z"/><path class="cls-8" d="M179.55,326.19c0-3.15,1.14-5.82,3.43-8.03,2.29-2.21,5.07-3.31,8.36-3.31s6.1,1.11,8.4,3.33c2.27,2.22,3.41,4.95,3.41,8.18s-1.14,6-3.43,8.21c-2.3,2.19-5.13,3.29-8.47,3.29s-6.09-1.12-8.34-3.35c-2.24-2.21-3.36-4.98-3.36-8.32Zm5.22,.09c0,2.18,.59,3.9,1.77,5.17,1.21,1.28,2.81,1.92,4.79,1.92s3.6-.63,4.79-1.9c1.2-1.27,1.79-2.96,1.79-5.08s-.6-3.81-1.79-5.08c-1.21-1.28-2.81-1.92-4.79-1.92s-3.54,.64-4.75,1.92c-1.21,1.28-1.82,2.94-1.82,4.96Z"/><path class="cls-8" d="M208.55,315.46h5.13v2.01c1.79-1.74,3.8-2.62,6.04-2.62,2.57,0,4.58,.8,6.02,2.39,1.24,1.36,1.86,3.57,1.86,6.64v13.35h-5.13v-12.16c0-2.15-.3-3.63-.91-4.45-.59-.83-1.67-1.25-3.23-1.25-1.7,0-2.9,.55-3.61,1.65-.7,1.09-1.04,2.99-1.04,5.7v10.51h-5.13v-21.78Z"/><path class="cls-8" d="M264.72,299.47h5.13v37.77h-5.13v-2.28c-2.01,1.94-4.29,2.91-6.84,2.91-3.03,0-5.54-1.09-7.54-3.26-1.98-2.22-2.98-4.99-2.98-8.32s.99-5.96,2.98-8.14c1.97-2.19,4.44-3.29,7.43-3.29,2.59,0,4.91,1.04,6.95,3.13v-18.52Zm-12.13,26.81c0,2.09,.57,3.79,1.7,5.1,1.17,1.33,2.63,1.99,4.41,1.99,1.89,0,3.42-.64,4.59-1.92,1.17-1.33,1.75-3.01,1.75-5.05s-.58-3.73-1.75-5.05c-1.17-1.3-2.68-1.95-4.54-1.95-1.76,0-3.23,.66-4.41,1.97-1.17,1.33-1.75,2.97-1.75,4.92Z"/><path class="cls-8" d="M296.45,327.53h-15.85c.14,1.79,.73,3.21,1.77,4.27,1.05,1.04,2.39,1.57,4.02,1.57,1.27,0,2.32-.3,3.16-.89,.82-.6,1.75-1.7,2.79-3.31l4.31,2.37c-.67,1.12-1.37,2.08-2.11,2.87-.74,.8-1.54,1.45-2.39,1.97-.85,.52-1.76,.89-2.75,1.13-.98,.24-2.05,.36-3.2,.36-3.3,0-5.95-1.04-7.95-3.13-2-2.1-3-4.89-3-8.36s.97-6.23,2.91-8.36c1.95-2.1,4.54-3.15,7.77-3.15s5.83,1.02,7.72,3.06c1.88,2.03,2.82,4.84,2.82,8.43l-.02,1.19Zm-5.25-4.11c-.71-2.68-2.43-4.03-5.16-4.03-.62,0-1.2,.09-1.75,.28-.55,.19-1.04,.45-1.49,.8-.45,.35-.83,.77-1.15,1.26s-.56,1.05-.73,1.68h10.27Z"/><path class="cls-8" d="M314.89,319.17l-4.22,2.21c-.67-1.34-1.49-2.01-2.48-2.01-.47,0-.87,.15-1.2,.46-.33,.31-.5,.7-.5,1.17,0,.83,.98,1.66,2.95,2.48,2.71,1.15,4.53,2.21,5.47,3.18,.94,.97,1.41,2.27,1.41,3.91,0,2.1-.79,3.86-2.36,5.28-1.53,1.34-3.38,2.01-5.54,2.01-3.71,0-6.34-1.78-7.88-5.34l4.36-1.99c.61,1.04,1.07,1.71,1.39,1.99,.62,.57,1.36,.85,2.23,.85,1.73,0,2.59-.78,2.59-2.33,0-.89-.67-1.73-2-2.5-.52-.25-1.03-.5-1.54-.74-.51-.24-1.04-.48-1.57-.74-1.48-.72-2.53-1.43-3.13-2.15-.77-.91-1.16-2.08-1.16-3.51,0-1.89,.66-3.46,1.98-4.7,1.35-1.24,2.98-1.86,4.91-1.86,2.83,0,4.94,1.44,6.31,4.32Z"/><path class="cls-8" d="M355.41,327.53h-15.85c.14,1.79,.73,3.21,1.77,4.27,1.05,1.04,2.39,1.57,4.02,1.57,1.27,0,2.32-.3,3.16-.89,.82-.6,1.75-1.7,2.79-3.31l4.31,2.37c-.67,1.12-1.37,2.08-2.11,2.87-.74,.8-1.54,1.45-2.39,1.97-.85,.52-1.76,.89-2.75,1.13-.98,.24-2.05,.36-3.2,.36-3.3,0-5.95-1.04-7.95-3.13-2-2.1-3-4.89-3-8.36s.97-6.23,2.91-8.36c1.95-2.1,4.54-3.15,7.77-3.15s5.83,1.02,7.72,3.06c1.88,2.03,2.82,4.84,2.82,8.43l-.02,1.19Zm-5.25-4.11c-.71-2.68-2.43-4.03-5.16-4.03-.62,0-1.2,.09-1.75,.28-.55,.19-1.04,.45-1.49,.8-.45,.35-.83,.77-1.15,1.26s-.56,1.05-.73,1.68h10.27Zm2.41-18.69l-8.27,7.38-2.79-1.7,6.25-8.14,4.81,2.46Z"/><path class="cls-8" d="M366.68,320.15v17.08h-5.11v-17.08h-2.18v-4.7h2.18v-7.98h5.11v7.98h3.97v4.7h-3.97Z"/><path class="cls-8" d="M379.24,315.46v12.5c0,3.61,1.45,5.41,4.34,5.41s4.34-1.8,4.34-5.41v-12.5h5.11v12.61c0,1.74-.22,3.25-.66,4.52-.42,1.13-1.16,2.15-2.2,3.06-1.73,1.48-3.92,2.21-6.59,2.21s-4.84-.74-6.56-2.21c-1.06-.91-1.81-1.93-2.25-3.06-.42-1.01-.64-2.52-.64-4.52v-12.61h5.11Z"/><path class="cls-8" d="M415.79,299.47h5.13v37.77h-5.13v-2.28c-2.01,1.94-4.29,2.91-6.84,2.91-3.03,0-5.54-1.09-7.54-3.26-1.98-2.22-2.97-4.99-2.97-8.32s.99-5.96,2.97-8.14c1.97-2.19,4.44-3.29,7.43-3.29,2.59,0,4.91,1.04,6.95,3.13v-18.52Zm-12.13,26.81c0,2.09,.57,3.79,1.7,5.1,1.17,1.33,2.63,1.99,4.41,1.99,1.89,0,3.42-.64,4.59-1.92,1.17-1.33,1.75-3.01,1.75-5.05s-.58-3.73-1.75-5.05c-1.17-1.3-2.68-1.95-4.54-1.95-1.76,0-3.23,.66-4.41,1.97-1.17,1.33-1.75,2.97-1.75,4.92Z"/><path class="cls-8" d="M426.6,306.4c0-.88,.33-1.64,.98-2.28,.65-.64,1.43-.96,2.34-.96s1.71,.32,2.36,.96c.65,.63,.98,1.39,.98,2.3s-.33,1.68-.98,2.33c-.64,.64-1.42,.96-2.34,.96s-1.71-.32-2.36-.96c-.65-.64-.98-1.42-.98-2.35Zm5.88,9.06v21.78h-5.11v-21.78h5.11Z"/><path class="cls-8" d="M455.26,315.46h5.13v21.78h-5.13v-2.28c-2.11,1.94-4.37,2.91-6.79,2.91-3.06,0-5.59-1.09-7.59-3.26-1.98-2.22-2.97-4.99-2.97-8.32s.99-5.99,2.97-8.16c1.98-2.18,4.47-3.26,7.45-3.26,2.57,0,4.88,1.04,6.93,3.13v-2.53Zm-12.13,10.82c0,2.09,.57,3.79,1.7,5.1,1.17,1.33,2.63,1.99,4.41,1.99,1.89,0,3.42-.64,4.59-1.92,1.17-1.33,1.75-3.01,1.75-5.05s-.58-3.73-1.75-5.05c-1.17-1.3-2.68-1.95-4.54-1.95-1.76,0-3.23,.66-4.41,1.97-1.17,1.33-1.75,2.97-1.75,4.92Z"/><path class="cls-8" d="M466.84,315.46h5.13v2.01c1.79-1.74,3.8-2.62,6.04-2.62,2.57,0,4.58,.8,6.02,2.39,1.24,1.36,1.86,3.57,1.86,6.64v13.35h-5.13v-12.16c0-2.15-.3-3.63-.91-4.45-.59-.83-1.67-1.25-3.22-1.25-1.7,0-2.9,.55-3.61,1.65-.7,1.09-1.05,2.99-1.05,5.7v10.51h-5.13v-21.78Z"/><path class="cls-8" d="M497.62,320.15v17.08h-5.11v-17.08h-2.18v-4.7h2.18v-7.98h5.11v7.98h3.97v4.7h-3.97Z"/><path class="cls-8" d="M517.93,319.17l-4.22,2.21c-.67-1.34-1.49-2.01-2.48-2.01-.47,0-.87,.15-1.2,.46-.33,.31-.5,.7-.5,1.17,0,.83,.98,1.66,2.95,2.48,2.71,1.15,4.53,2.21,5.47,3.18,.94,.97,1.41,2.27,1.41,3.91,0,2.1-.79,3.86-2.36,5.28-1.53,1.34-3.38,2.01-5.54,2.01-3.71,0-6.34-1.78-7.88-5.34l4.36-1.99c.61,1.04,1.07,1.71,1.39,1.99,.62,.57,1.36,.85,2.23,.85,1.73,0,2.59-.78,2.59-2.33,0-.89-.67-1.73-2-2.5-.52-.25-1.03-.5-1.54-.74-.51-.24-1.04-.48-1.57-.74-1.48-.72-2.53-1.43-3.13-2.15-.77-.91-1.16-2.08-1.16-3.51,0-1.89,.66-3.46,1.98-4.7,1.35-1.24,2.98-1.86,4.91-1.86,2.83,0,4.94,1.44,6.31,4.32Z"/></g></g></g></svg>