<svg width="16" height="10" viewBox="0 0 16 10" fill="none" xmlns="http://www.w3.org/2000/svg">
<path d="M0.727273 9.5V8.35863H15.2727V9.5H0.727273ZM1.41818 4.7474L0.690909 4.33576L1.41818 3.06341H0V2.22141H1.41818L0.690909 0.949064L1.41818 0.537422L2.10909 1.79106L2.8 0.537422L3.52727 0.949064L2.8 2.22141H4.21818V3.06341H2.8L3.52727 4.33576L2.8 4.7474L2.10909 3.49376L1.41818 4.7474ZM7.30909 4.7474L6.58182 4.29834L7.30909 3.02599H5.89091V2.18399H7.30909L6.58182 0.911643L7.30909 0.5L8 1.75364L8.69091 0.5L9.41818 0.911643L8.69091 2.18399H10.1091V3.02599H8.69091L9.41818 4.29834L8.69091 4.7474L8 3.49376L7.30909 4.7474ZM13.2 4.7474L12.4727 4.29834L13.2 3.02599H11.7818V2.18399H13.2L12.4727 0.911643L13.2 0.5L13.8909 1.75364L14.5818 0.5L15.3091 0.911643L14.5818 2.18399H16V3.02599H14.5818L15.3091 4.29834L14.5818 4.7474L13.8909 3.49376L13.2 4.7474Z" fill="white"/>
</svg>
