<?xml version="1.0" standalone="no"?>
<!DOCTYPE svg PUBLIC "-//W3C//DTD SVG 20010904//EN"
 "http://www.w3.org/TR/2001/REC-SVG-20010904/DTD/svg10.dtd">
<svg version="1.0" xmlns="http://www.w3.org/2000/svg"
 width="512.000000pt" height="512.000000pt" viewBox="0 0 512.000000 512.000000"
 preserveAspectRatio="xMidYMid meet">
<metadata>
Created by potrace 1.14, written by Peter Selinger 2001-2017
</metadata>
<g transform="translate(0.000000,512.000000) scale(0.100000,-0.100000)"
fill="#000000" stroke="none">
<path d="M2930 4143 c-38 -11 -60 -28 -70 -56 -15 -45 -12 -62 15 -90 33 -32
66 -38 105 -19 37 18 54 54 45 98 -7 41 -59 77 -95 67z"/>
<path d="M2495 3893 c-55 -14 -80 -80 -49 -132 10 -17 23 -32 29 -32 48 -6 85
-5 85 2 0 5 6 9 13 9 17 0 37 42 37 76 0 48 -63 90 -115 77z"/>
<path d="M2793 3688 c-21 -10 -43 -54 -43 -87 0 -9 12 -29 26 -46 53 -62 154
-24 154 58 0 37 -6 47 -40 70 -27 19 -64 21 -97 5z"/>
<path d="M2367 3553 c-3 -5 -8 -24 -13 -43 -4 -19 -9 -39 -10 -45 -2 -5 -7
-26 -13 -45 -41 -151 -50 -182 -54 -186 -2 -3 -20 11 -40 30 -88 85 -218 164
-342 209 -38 14 -73 25 -77 26 -5 0 -9 1 -10 2 -4 1 -26 4 -98 15 -97 14 -295
5 -350 -16 -3 -1 -9 -3 -15 -5 -5 -1 -12 -3 -15 -4 -3 -2 -13 -4 -24 -6 -32
-6 -129 -48 -168 -72 -21 -13 -40 -23 -43 -23 -16 0 -149 -107 -200 -162 -63
-67 -135 -166 -135 -186 0 -7 -3 -12 -8 -12 -23 0 -94 -218 -109 -334 -10 -83
-3 -281 11 -304 3 -5 7 -19 10 -33 12 -57 16 -70 42 -135 104 -261 322 -462
590 -547 112 -35 152 -41 289 -41 122 1 196 9 228 25 9 6 17 8 17 5 0 -8 103
30 166 61 101 51 165 96 238 166 22 21 43 34 47 30 4 -4 14 -35 22 -68 36
-147 61 -230 70 -236 5 -4 25 -1 43 7 19 8 34 12 34 10 0 -3 18 1 40 9 22 8
40 12 40 8 0 -3 6 -1 13 5 6 5 28 13 47 16 19 3 63 14 98 25 34 11 62 17 62
14 0 -3 6 0 13 6 8 6 17 8 20 4 16 -15 3 52 -32 165 -5 17 -7 32 -4 32 3 0 0
6 -6 14 -6 8 -11 18 -10 22 1 5 0 12 -1 17 -1 4 -4 12 -5 17 -1 6 -3 11 -4 13
-2 1 -5 13 -7 27 -3 14 -22 88 -43 165 -21 77 -42 154 -46 170 -5 17 -10 35
-11 40 -13 42 -9 49 29 48 46 -1 48 -2 52 -50 2 -21 4 -38 5 -38 1 0 3 -11 6
-24 14 -78 101 -264 134 -291 4 -3 11 -13 16 -23 19 -34 137 -148 192 -186
113 -76 254 -133 367 -146 33 -4 69 -9 80 -12 29 -6 207 -4 252 2 83 12 156
27 183 38 8 3 33 11 55 17 116 35 267 145 368 268 41 50 50 41 -113 115 -30
14 -88 42 -129 61 -41 20 -78 36 -83 36 -5 0 -32 -17 -61 -39 -110 -82 -214
-118 -362 -124 -37 -2 -139 14 -191 29 -129 37 -241 148 -287 284 -13 41 -23
77 -21 79 2 2 311 3 686 3 376 0 690 1 698 4 12 3 15 20 13 81 -1 77 -9 169
-17 208 -65 314 -236 534 -511 653 -124 54 -233 74 -395 75 -216 0 -389 -55
-544 -172 -75 -57 -133 -115 -179 -181 -40 -57 -52 -70 -70 -70 -32 0 -82 -90
-58 -105 11 -6 6 -48 -11 -105 -13 -43 -15 -45 -57 -48 -41 -3 -42 -2 -35 20
10 31 73 267 80 298 2 14 9 39 15 56 5 17 12 40 14 50 2 10 14 55 26 99 11 44
22 85 23 92 1 7 5 15 9 19 11 11 -3 24 -27 24 -12 0 -26 3 -30 8 -4 4 -11 7
-14 7 -15 1 -100 21 -104 25 -2 1 -10 3 -18 5 -51 12 -216 57 -222 61 -3 2 -9
1 -11 -3z m1346 -454 c23 -5 49 -12 57 -16 8 -3 17 -7 20 -7 29 -6 111 -58
154 -97 46 -42 116 -148 116 -177 0 -6 -171 -9 -465 -9 -256 -1 -465 3 -465 7
0 21 79 138 119 177 58 58 143 101 231 119 13 3 26 7 28 9 8 7 164 2 205 -6z
m-2045 -24 c99 -15 185 -59 260 -135 73 -73 78 -79 112 -153 35 -76 42 -102
45 -192 5 -134 -52 -282 -142 -368 -61 -58 -85 -77 -100 -77 -7 0 -13 -4 -13
-9 0 -10 -98 -47 -150 -57 -287 -55 -566 147 -596 434 -3 28 -7 60 -8 69 -2
14 11 84 28 153 7 26 40 94 54 108 6 7 12 17 12 21 0 10 111 121 121 121 4 0
14 6 21 13 23 22 112 58 173 71 62 12 109 13 183 1z"/>
<path d="M480 2303 c-65 -26 -69 -132 -5 -161 45 -21 123 12 126 53 6 86 -50
135 -121 108z"/>
<path d="M478 1890 c-26 -27 -30 -36 -25 -67 8 -48 35 -74 82 -78 96 -9 132
133 42 165 -47 16 -66 12 -99 -20z"/>
</g>
</svg>
